<svg xmlns="http://www.w3.org/2000/svg" width="132" height="39" viewBox="0 0 132 39">
    <g fill="none" fill-rule="evenodd">
        <g>
            <rect width="131.628" height="38.951" fill="#000" rx="4.213"/>
            <path fill="#FFF" d="M51.446 31.039l-.192-.539-.442-1.24-.442-1.242-.192-.538h-5.023l-1.27 3.559h-1.653l4.655-12.436h1.558L53.1 31.04h-1.654zM47.64 20.491l-.206.573c-.137.382-.305.854-.503 1.417a389.542 389.542 0 0 1-1.107 3.107l-.205.573h4.095l-2.022-5.67h-.052zm11.306 1.43c1.16 0 2.1.421 2.817 1.263.718.841 1.077 1.966 1.077 3.374 0 1.402-.356 2.525-1.068 3.37-.712.844-1.642 1.266-2.791 1.266-.654 0-1.231-.146-1.733-.44a3.096 3.096 0 0 1-1.164-1.171h-.035v4.446h-1.522V22.076h1.443v1.517h.035c.28-.506.676-.91 1.186-1.215.51-.305 1.095-.457 1.755-.457zm-.298 7.955c.811 0 1.453-.3 1.925-.897.473-.597.709-1.404.709-2.421 0-1.012-.236-1.817-.709-2.418-.472-.6-1.114-.9-1.925-.9-.776 0-1.404.304-1.886.913-.48.61-.722 1.41-.722 2.405 0 1 .241 1.802.722 2.408.482.607 1.11.91 1.886.91zm10.36-7.955c1.162 0 2.1.421 2.818 1.263.718.841 1.077 1.966 1.077 3.374 0 1.402-.356 2.525-1.068 3.37-.711.844-1.642 1.266-2.791 1.266-.654 0-1.231-.146-1.733-.44a3.096 3.096 0 0 1-1.164-1.171h-.035v4.446H64.59V22.076h1.444v1.517h.035c.28-.506.675-.91 1.185-1.215.51-.305 1.096-.457 1.755-.457zm-.297 7.955c.811 0 1.453-.3 1.925-.897.473-.597.71-1.404.71-2.421 0-1.012-.237-1.817-.71-2.418-.472-.6-1.114-.9-1.925-.9-.776 0-1.404.304-1.885.913-.482.61-.722 1.41-.722 2.405 0 1 .24 1.802.722 2.408.48.607 1.11.91 1.885.91zm9.468-2.258h1.584c.076.672.412 1.212 1.007 1.62.595.408 1.341.612 2.24.612.851 0 1.556-.2 2.113-.6.557-.399.836-.903.836-1.512a1.65 1.65 0 0 0-.582-1.301c-.388-.339-1.008-.615-1.86-.827l-1.619-.414c-2.24-.563-3.36-1.658-3.36-3.283 0-1.035.416-1.88 1.247-2.534.831-.655 1.903-.983 3.216-.983 1.254 0 2.293.33 3.115.991.823.661 1.251 1.514 1.286 2.56h-1.575c-.07-.666-.361-1.192-.875-1.577-.513-.385-1.181-.577-2.004-.577-.816 0-1.483.19-2 .568-.515.38-.773.874-.773 1.483 0 .47.188.857.564 1.159.376.301.993.561 1.85.78l1.322.344c1.307.322 2.246.75 2.818 1.284.571.535.857 1.247.857 2.138 0 1.137-.424 2.038-1.273 2.701-.849.664-2 .996-3.452.996-1.336 0-2.431-.33-3.286-.991-.855-.66-1.32-1.54-1.396-2.637zm11.726-7.705h1.523v2.163h1.767v1.233h-1.767v5.326c0 .408.09.708.271.9.18.193.467.289.858.289.087 0 .2-.006.34-.017.14-.012.237-.02.29-.026v1.258c-.094.023-.232.04-.416.052a8.762 8.762 0 0 1-.547.017c-.834 0-1.43-.184-1.785-.552-.356-.367-.534-.982-.534-1.844V23.31H88.55v-1.233h1.356v-2.163zm8.89 11.281c-1.26 0-2.277-.416-3.053-1.25-.776-.833-1.164-1.961-1.164-3.386 0-1.43.388-2.561 1.164-3.392.776-.83 1.794-1.245 3.054-1.245 1.254 0 2.269.415 3.045 1.245.776.83 1.164 1.961 1.164 3.392 0 1.425-.388 2.553-1.164 3.387-.776.833-1.791 1.25-3.045 1.25zm0-1.318c.806 0 1.45-.29 1.935-.867.484-.577.726-1.394.726-2.451 0-1.057-.242-1.875-.726-2.452-.485-.578-1.13-.866-1.934-.866-.805 0-1.451.288-1.939.866-.487.577-.73 1.395-.73 2.452s.243 1.874.73 2.451c.488.578 1.134.867 1.939.867zm5.96 1.163v-8.963h1.435v1.465h.035c.327-1.08 1.062-1.62 2.205-1.62.134 0 .255.007.363.022.108.014.191.027.25.039v1.456a1.4 1.4 0 0 0-.311-.06 4.406 4.406 0 0 0-.503-.026c-.59 0-1.062.192-1.418.577-.356.385-.534.894-.534 1.526v5.584h-1.522zm9.39-7.817c-.712 0-1.299.242-1.76.724-.46.483-.714 1.098-.76 1.845h4.943c-.017-.753-.246-1.37-.687-1.849-.44-.48-1.02-.72-1.737-.72zm2.388 5.249h1.496c-.128.781-.544 1.43-1.246 1.948-.703.517-1.55.775-2.543.775-1.3 0-2.324-.415-3.071-1.245-.747-.83-1.12-1.95-1.12-3.357 0-1.39.373-2.516 1.12-3.378.747-.862 1.747-1.293 3.001-1.293 1.231 0 2.201.407 2.91 1.22.709.813 1.063 1.897 1.063 3.253v.569h-6.528v.086c0 .856.24 1.544.718 2.064s1.126.78 1.942.78c.578 0 1.067-.132 1.466-.397.4-.264.664-.606.792-1.025z"/>
            <path fill="#FFF" fill-rule="nonzero" d="M29.761 29.033c-1.084 1.555-2.206 3.1-3.977 3.133-1.743.032-2.302-1.012-4.29-1.012-1.992 0-2.614.98-4.26 1.044-1.71.063-3.01-1.679-4.103-3.227-2.234-3.165-3.939-8.948-1.646-12.851 1.136-1.939 3.17-3.165 5.375-3.197 1.679-.03 3.265 1.11 4.29 1.11 1.027 0 2.953-1.37 4.977-1.169.847.035 3.225.335 4.752 2.526-.121.078-2.839 1.628-2.805 4.857.033 3.858 3.447 5.14 3.487 5.158-.03.09-.546 1.83-1.8 3.628zM22.325 8.626c.938-1.076 2.521-1.878 3.828-1.931.167 1.496-.446 2.994-1.353 4.073-.908 1.078-2.395 1.917-3.855 1.805-.198-1.464.538-2.99 1.38-3.947z"/>
        </g>
        <path fill="#FFF" d="M48.277 13.998l-.569-1.596h-2.251l-.569 1.596h-.741l2.086-5.575h.699l2.087 5.575h-.742zm-1.726-4.675l-.886 2.488H47.5l-.886-2.488h-.063zm7.358.51l-1.565 4.165h-.69l-1.566-4.165h.722l1.157 3.431h.063l1.157-3.43h.722zm3.129 3.655c.694 0 1.208-.448 1.208-1.043v-.382l-1.137.073c-.644.042-.926.263-.926.68 0 .425.365.672.855.672zm-.126.583c-.82 0-1.427-.479-1.427-1.24 0-.745.557-1.174 1.541-1.232l1.22-.073v-.38c0-.513-.325-.795-.957-.795-.506 0-.859.19-.953.518h-.683c.09-.669.757-1.109 1.66-1.109 1.031 0 1.608.522 1.608 1.387v2.851h-.643v-.614h-.063c-.275.444-.738.687-1.303.687zm4.353-.073V9.833h.675v4.165h-.675zm.338-5.01a.469.469 0 0 1-.47-.464c0-.255.21-.464.47-.464.259 0 .47.209.47.464a.469.469 0 0 1-.47.463zm2.744 5.01V8.18h.675v5.818h-.675zm4.37-.51c.693 0 1.207-.448 1.207-1.043v-.382l-1.137.073c-.644.042-.926.263-.926.68 0 .425.365.672.855.672zm-.126.583c-.82 0-1.428-.479-1.428-1.24 0-.745.557-1.174 1.541-1.232l1.22-.073v-.38c0-.513-.325-.795-.957-.795-.506 0-.859.19-.953.518h-.683c.09-.669.757-1.109 1.66-1.109 1.031 0 1.608.522 1.608 1.387v2.851h-.643v-.614h-.063c-.275.444-.738.687-1.302.687zm6.44 0c-.589 0-1.091-.274-1.358-.737h-.063v.664h-.643V8.18h.675v2.31h.063c.231-.448.745-.73 1.325-.73 1.075 0 1.773.846 1.773 2.156 0 1.302-.702 2.155-1.773 2.155zm-.158-3.712c-.768 0-1.247.595-1.247 1.557s.479 1.557 1.247 1.557c.773 0 1.232-.584 1.232-1.557 0-.974-.459-1.557-1.232-1.557zm4.11 3.639V8.18h.675v5.818h-.675zm4.753-3.65c-.674 0-1.145.486-1.196 1.224h2.33c-.016-.738-.463-1.225-1.134-1.225zm1.114 2.572h.675c-.204.715-.855 1.151-1.78 1.151-1.174 0-1.907-.834-1.907-2.151 0-1.31.745-2.16 1.906-2.16 1.142 0 1.836.8 1.836 2.094v.255h-3.04v.03c.035.824.502 1.345 1.22 1.345.545 0 .914-.197 1.09-.564zm7.957 1.151c-1.204 0-1.95-.819-1.95-2.155 0-1.34.746-2.156 1.95-2.156s1.95.815 1.95 2.156c0 1.336-.746 2.155-1.95 2.155zm0-.598c.8 0 1.251-.572 1.251-1.557 0-.99-.45-1.557-1.251-1.557-.8 0-1.251.568-1.251 1.557 0 .985.45 1.557 1.251 1.557zm4.09.525V9.833h.643v.657h.063c.212-.46.624-.73 1.271-.73.95 0 1.479.552 1.479 1.541v2.697h-.675v-2.534c0-.75-.321-1.105-.996-1.105s-1.11.444-1.11 1.174v2.465h-.675zm9.4-5.242h.675v1.077h.942v.557h-.942v2.356c0 .49.188.7.628.7.121 0 .188-.004.314-.016v.56a2.294 2.294 0 0 1-.397.039c-.87 0-1.22-.317-1.22-1.113V10.39h-.682v-.557h.682V8.756zm3.757 5.242V8.18h.675v2.31h.063c.211-.46.655-.73 1.302-.73.894 0 1.46.564 1.46 1.541v2.697h-.676v-2.534c0-.738-.337-1.105-.976-1.105-.757 0-1.173.471-1.173 1.174v2.465h-.675zm7.499-3.65c-.675 0-1.145.486-1.196 1.224h2.33c-.016-.738-.463-1.225-1.134-1.225zm1.114 2.572h.675c-.204.715-.855 1.151-1.781 1.151-1.173 0-1.907-.834-1.907-2.151 0-1.31.746-2.16 1.907-2.16 1.141 0 1.836.8 1.836 2.094v.255h-3.04v.03c.035.824.502 1.345 1.22 1.345.545 0 .914-.197 1.09-.564z"/>
    </g>
</svg>
