<svg xmlns="http://www.w3.org/2000/svg" xmlns:xlink="http://www.w3.org/1999/xlink" width="76" height="57" viewBox="0 0 76 57">
    <defs>
        <linearGradient id="b" x1="45.244%" x2="29.925%" y1="55.686%" y2="100%">
            <stop offset="0%" stop-color="#DAE8FF"/>
            <stop offset="100%" stop-color="#EFF4FF"/>
        </linearGradient>
        <ellipse id="a" cx="24.745" cy="24.649" rx="24.745" ry="24.649"/>
        <linearGradient id="c" x1="54.084%" x2="29.925%" y1="23.685%" y2="100%">
            <stop offset="0%" stop-color="#DAE8FF"/>
            <stop offset="100%" stop-color="#EFF4FF"/>
        </linearGradient>
        <linearGradient id="e" x1="50%" x2="32.324%" y1="44.555%" y2="132.288%">
            <stop offset="0%" stop-color="#D0DFFB"/>
            <stop offset="100%" stop-color="#EFF4FF"/>
        </linearGradient>
        <linearGradient id="f" x1="100%" x2="-94.292%" y1="69.493%" y2="129.158%">
            <stop offset="0%" stop-color="#CBDEFF"/>
            <stop offset="100%" stop-color="#EFF4FF"/>
        </linearGradient>
        <linearGradient id="g" x1="45.591%" x2="45.591%" y1="-12.373%" y2="100%">
            <stop offset="0%" stop-color="#A9C2EF"/>
            <stop offset="100%" stop-color="#E2ECFF"/>
        </linearGradient>
        <linearGradient id="h" x1="462.525%" x2="14.691%" y1="300.29%" y2="50%">
            <stop offset="0%" stop-color="#FAFF11"/>
            <stop offset="100%" stop-color="#FABF0F"/>
        </linearGradient>
        <linearGradient id="i" x1="-17.568%" x2="85.164%" y1="54.445%" y2="54.445%">
            <stop offset="0%" stop-color="#8062FD"/>
            <stop offset="100%" stop-color="#C393FF"/>
        </linearGradient>
        <linearGradient id="j" x1="89.762%" x2="6.256%" y1="50%" y2="69.988%">
            <stop offset="0%" stop-color="#B88BFF"/>
            <stop offset="100%" stop-color="#7962FB"/>
        </linearGradient>
        <linearGradient id="k" x1="60.627%" x2="26.992%" y1="14.479%" y2="117.602%">
            <stop offset="0%" stop-color="#FFE005"/>
            <stop offset="100%" stop-color="#FFC507"/>
        </linearGradient>
    </defs>
    <g fill="none" fill-rule="evenodd">
        <g transform="translate(7 4)">
            <g transform="translate(6.993)">
                <mask id="d" fill="#fff">
                    <use xlink:href="#a"/>
                </mask>
                <use fill="url(#b)" xlink:href="#a"/>
                <path fill="url(#c)" d="M27.035 57.12c20.086 0 36.37-11.39 36.37-25.439s-6.99 1.42-29.252-17.834C11.892-5.406-9.335 17.632-9.335 31.681c0 14.05 16.284 25.439 36.37 25.439z" mask="url(#d)"/>
                <g mask="url(#d)">
                    <path fill="url(#e)" d="M6.706 23.158l.127-1.422.132-1.409.158-1.703.127-1.398.155-1.668c.022-.243.047-.485.06-.729.003-.047-.03-.103-.06-.144-.215-.291-.435-.578-.65-.87a.272.272 0 0 1-.05-.149c-.005-.5-.004-1-.003-1.5 0-.206.098-.3.306-.302h.698c.192.002.297.107.299.301v.739h.78c0-.13.003-.251 0-.372-.01-.684-.014-.68.675-.668.114.002.228-.001.343 0 .185.003.287.099.29.283.003.247 0 .495 0 .757h.78v-.228c0-.173-.004-.347 0-.52.004-.187.11-.29.297-.291.244-.002.488-.002.733 0 .181.001.285.105.288.285.003.205.003.41.005.614 0 .043.004.085.007.132.035.003.061.007.088.007h.688v-.63c.001-.067.002-.135.014-.2a.247.247 0 0 1 .24-.207c.267-.004.535-.004.803 0 .153.003.255.117.258.28.003.205.001.41.001.615v.135h.776c.001-.034.005-.071.005-.109v-.637c.002-.176.105-.283.277-.285.252-.003.504-.003.756 0 .162.002.269.105.27.266.003.52.002 1.039 0 1.559-.001.042-.025.09-.052.125-.212.288-.427.575-.644.86a.281.281 0 0 0-.067.213c.066.666.126 1.331.187 1.997.05.552.098 1.104.149 1.657.051.556.105 1.111.157 1.667l.15 1.657.118 1.292H6.706zm-6.706 0v-7.396c0-.344.161-.508.5-.508h1.258c.338 0 .501.166.502.509v.725c0 .162.07.233.233.233.223.001.446.002.67 0 .15 0 .226-.076.227-.23.002-.262 0-.523 0-.784.002-.26.16-.444.416-.45.476-.009.953-.01 1.43 0 .255.006.414.193.415.452v1.01h.864l-.587 6.439H0zm17.154 0c-.038-.404-.078-.807-.115-1.21l-.153-1.677-.125-1.386-.152-1.665c-.015-.162-.027-.324-.042-.5h.656v-.769-.257c.003-.256.173-.431.43-.435.27-.005.54-.001.81-.001.197 0 .394-.003.59 0 .269.005.438.18.439.452v.773c.001.164.07.236.231.237h.683c.147-.002.22-.075.22-.224.003-.262 0-.523.002-.785 0-.263.154-.445.413-.451.478-.012.957-.01 1.435-.006.22.002.349.14.42.34v7.564h-5.742zM8.568 5.272h1.449v1.126h.87V5.277h1.466V6.4h.869V5.275h1.476c.002.04.006.078.006.115 0 .815.003 1.63 0 2.446 0 .06-.024.129-.06.177-.214.291-.437.575-.651.866a.258.258 0 0 0-.043.166c.054.518.114 1.035.172 1.553.02.167.038.335.058.51H9.09l.07-.629c.056-.494.115-.988.169-1.483.004-.036-.022-.08-.046-.112-.222-.294-.447-.586-.668-.882a.245.245 0 0 1-.05-.135c-.003-.842-.002-1.685-.002-2.527 0-.018.003-.037.005-.068zM11.541 0l3.91 4.33H7.631L11.541 0z" transform="translate(31.878 5.965)"/>
                    <path fill="url(#f)" d="M7.582 25.088l.145-1.54c.049-.51.1-1.018.15-1.527l.178-1.845.143-1.515c.058-.602.118-1.204.175-1.806.026-.263.053-.526.069-.79.003-.051-.034-.111-.069-.156-.243-.316-.492-.627-.734-.943a.287.287 0 0 1-.058-.161c-.004-.542-.004-1.083-.002-1.625 0-.224.11-.326.346-.327h.789c.217.002.336.116.337.326.002.26 0 .52 0 .8h.884c0-.141.002-.272 0-.402-.013-.742-.017-.736.762-.724.13.002.258-.001.388 0 .21.003.324.107.327.307.004.267.001.535.001.819h.882v-.247c0-.188-.005-.375 0-.563.004-.203.125-.314.335-.316.277-.001.553-.002.83 0 .204.002.322.114.325.31.003.221.003.443.006.665 0 .046.005.092.007.143.04.003.07.008.1.008h.778v-.684c.002-.072.002-.146.016-.216a.275.275 0 0 1 .27-.224c.303-.004.606-.005.91 0 .173.003.288.126.291.304.004.221.001.443.001.665v.147h.878c.001-.037.005-.078.005-.118v-.691c.003-.19.119-.306.313-.308.285-.003.57-.003.856 0 .183.002.304.113.305.287.003.563.003 1.126-.001 1.69a.249.249 0 0 1-.057.135c-.241.312-.484.623-.73.931a.297.297 0 0 0-.075.232c.074.72.142 1.442.211 2.163.057.598.112 1.197.17 1.795.057.602.118 1.204.176 1.806.058.598.113 1.197.17 1.795l.133 1.4H7.582zm-7.582 0v-8.012c0-.373.182-.55.566-.551h1.422c.382 0 .567.18.567.551v.786c.001.176.08.252.264.253h.757c.171-.002.256-.083.257-.25.002-.283 0-.566.001-.85.001-.281.18-.48.47-.486.538-.01 1.078-.01 1.616 0 .289.006.469.208.47.489v1.095h.977l-.664 6.975H0zm19.397 0c-.043-.437-.088-.874-.13-1.311-.059-.606-.116-1.211-.173-1.817l-.141-1.5-.172-1.805c-.017-.175-.031-.35-.048-.54h.742v-.835-.279c.004-.277.196-.466.487-.47.305-.005.61-.002.916-.002.222 0 .445-.003.667 0 .304.006.495.196.496.49v.837c.001.179.08.256.261.257h.773c.165-.002.248-.081.25-.242v-.85c.001-.285.175-.483.467-.49.541-.013 1.082-.011 1.623-.006.25.002.395.152.475.37v8.193h-6.493zM9.688 5.71h1.639v1.22h.983V5.717h1.658v1.216h.983V5.715h1.67c.002.043.005.084.005.124.002.884.004 1.767 0 2.65 0 .065-.027.14-.067.192-.242.315-.495.623-.737.938a.27.27 0 0 0-.048.18c.061.56.129 1.121.195 1.682l.066.553h-5.756c.026-.23.051-.456.078-.682.065-.535.131-1.07.192-1.606.004-.039-.025-.087-.052-.121-.25-.32-.506-.636-.755-.956a.26.26 0 0 1-.057-.147c-.003-.912-.002-1.824-.002-2.737 0-.02.003-.04.005-.074zM13.05 0l4.42 4.691H8.63L13.05 0z" transform="translate(-11.976 2.28)"/>
                </g>
            </g>
            <ellipse cx="31.21" cy="45.965" fill="#A7ACAE" opacity=".302" rx="30.381" ry="1.228"/>
        </g>
        <path fill="url(#g)" d="M6.39 12.167A4.089 4.089 0 0 1 5.32 9.578H3.78a1.825 1.825 0 1 1 0-.365H5.32a4.089 4.089 0 0 1 1.053-2.567l-1.14-1.14a1.825 1.825 0 1 1 .255-.26l1.141 1.14a4.09 4.09 0 0 1 2.61-1.091V3.728a1.825 1.825 0 1 1 .365.005v1.562a4.09 4.09 0 0 1 2.588 1.072l1.122-1.122a1.825 1.825 0 1 1 .255.26l-1.119 1.12a4.089 4.089 0 0 1 1.073 2.588h1.68a1.825 1.825 0 1 1 0 .365h-1.68a4.09 4.09 0 0 1-1.092 2.61l1.167 1.166a1.825 1.825 0 1 1-.26.255l-1.166-1.165c-.262.236-.554.439-.87.602l3.228 8.93h-1.55l-3.075-8.503a4.15 4.15 0 0 1-.967 0l-3.075 8.503H4.31l3.229-8.93a4.115 4.115 0 0 1-.891-.621l-1.185 1.184a1.825 1.825 0 1 1-.26-.255l1.187-1.187z" opacity=".8" transform="translate(29 10)"/>
        <path fill="url(#h)" d="M22.538 22.72l29.738-4.707a2.283 2.283 0 0 1 2.64 2.256v13.13l-32.378-2.777c-4.717-5.267-4.717-7.901 0-7.901z"/>
        <path fill="#6F59FF" fill-rule="nonzero" d="M57.222 37.876c0 2.75 1.223 4.7 2.88 5.36.565.226.947.868.947 1.59v3.552c0 .577-.387 1.046-.865 1.046H16.93c-.478 0-1.93-.426-1.93-1.894v-2.704c0-.722.381-1.364.947-1.59 1.656-.66 2.88-2.97 2.88-5.72 0-2.749-1.224-5.06-2.88-5.72-.566-.225-.947-.867-.947-1.589v-3.226c0-.206.089-1.605.625-2.058.965-.815 2.705-.762 3.201-.762 9.334 0 23.12.02 41.358.06.478 0 .865.47.865 1.047v4.94c0 .721-.382 1.363-.948 1.588-1.656.66-2.879 3.33-2.879 6.08z"/>
        <path fill="url(#i)" d="M42.186 11.716c0 2.75 1.223 5.06 2.88 5.72.565.226.946.867.946 1.59v3.551c0 .578-.386 1.047-.864 1.047H3.833c-.478 0-.865-.469-.865-1.047v-3.552c0-.722.381-1.363.947-1.589 1.656-.66 2.88-2.97 2.88-5.72 0-2.749-1.224-5.06-2.88-5.72-.566-.226-.947-.867-.947-1.589V1.181c0-.578.387-1.047.865-1.047h41.315c.478 0 .864.469.864 1.047v3.226c0 .722-.38 1.363-.947 1.589-1.656.66-2.879 2.971-2.879 5.72z" transform="translate(15 24)"/>
        <path fill="url(#j)" d="M45.065 17.436c.566.226.947.867.947 1.59v3.551c0 .578-.386 1.047-.864 1.047H3.833c-.478 0-.865-.469-.865-1.047v-3.552c0-.722.381-1.363.947-1.589 1.656-.66 2.88-2.97 2.88-5.72 0-2.749-1.224-5.06-2.88-5.72-.566-.226-.947-.867-.947-1.589v-.324c5.76 1.06 10.713 3.845 14.863 8.355 6.505 7.07 16.191 6.366 25.017 2.593.518 1.17 1.301 2.04 2.217 2.405z" transform="translate(15 24)"/>
        <path fill="#DBC2FF" stroke="#CDAAFF" stroke-width=".915" d="M27.779 47.19h.434v-2.76a.217.217 0 1 0-.434 0v2.76z"/>
        <path fill="#DBC2FF" fill-rule="nonzero" d="M27.322 29.127a.675.675 0 1 1 1.349 0v4.501a.675.675 0 1 1-1.35 0v-4.5zM27.322 36.779a.675.675 0 1 1 1.349 0v4.5a.675.675 0 1 1-1.35 0v-4.5z"/>
        <path fill="#DBC2FF" stroke="#CDAAFF" stroke-width=".915" d="M27.779 24.633v1.344a.217.217 0 1 0 .434 0v-1.344h-.434z"/>
        <path fill="url(#k)" d="M27.243 7.505l.886 1.797c.116.235.34.397.598.435l1.981.288c.651.095.911.895.44 1.355l-1.434 1.398a.796.796 0 0 0-.228.703l.339 1.976a.793.793 0 0 1-1.152.837l-1.772-.933a.793.793 0 0 0-.739 0l-1.771.933a.793.793 0 0 1-1.152-.837l.339-1.976a.796.796 0 0 0-.229-.703l-1.433-1.398a.794.794 0 0 1 .44-1.355l1.981-.288a.793.793 0 0 0 .597-.435l.886-1.797a.793.793 0 0 1 1.423 0z" transform="translate(15 24)"/>
    </g>
</svg>
