<?xml version="1.0" encoding="UTF-8"?>
<svg width="24px" height="24px" viewBox="0 0 24 24" version="1.1" xmlns="http://www.w3.org/2000/svg" xmlns:xlink="http://www.w3.org/1999/xlink">
    <!-- Generator: Sketch 52.1 (67048) - http://www.bohemiancoding.com/sketch -->
    <title>Icon / ic_homenew-active</title>
    <desc>Created with Sketch.</desc>
    <defs>
        <linearGradient x1="44.7734375%" y1="0%" x2="50%" y2="100%" id="linearGradient-1">
            <stop stop-color="#33B7FF" offset="0%"></stop>
            <stop stop-color="#1780FF" offset="100%"></stop>
        </linearGradient>
        <path d="M1.57226234,5.61113614 L7.96785762,0.909192703 C9.22641346,-0.0160782186 10.9402532,-0.0160782186 12.198809,0.909192703 L18.5944043,5.61113614 C19.4182479,6.21681328 19.9047619,7.17833623 19.9047619,8.20086398 L19.9047619,16.3333333 C19.9047619,18.3057789 18.3057789,19.9047619 16.3333333,19.9047619 L3.83333333,19.9047619 C1.8608878,19.9047619 0.261904762,18.3057789 0.261904762,16.3333333 L0.261904762,8.20086398 C0.261904762,7.17833623 0.748418775,6.21681328 1.57226234,5.61113614 Z" id="path-2"></path>
        <linearGradient x1="42.0477764%" y1="43.0588942%" x2="50%" y2="97.8575721%" id="linearGradient-4">
            <stop stop-color="#33B7FF" offset="0%"></stop>
            <stop stop-color="#0A72F1" offset="100%"></stop>
        </linearGradient>
        <circle id="path-5" cx="3.92857143" cy="3.92857143" r="3.92857143"></circle>
        <linearGradient x1="59.1033936%" y1="91.3208008%" x2="23.3520508%" y2="0%" id="linearGradient-7">
            <stop stop-color="#FFF976" offset="0%"></stop>
            <stop stop-color="#FEDD00" offset="100%"></stop>
        </linearGradient>
        <circle id="path-8" cx="3.53571429" cy="4.71428571" r="3.14285714"></circle>
    </defs>
    <g id="Icon-/-ic_homenew-active" stroke="none" stroke-width="1" fill="none" fill-rule="evenodd">
        <g id="Group" transform="translate(1.000000, 1.000000)">
            <g id="Group-17" transform="translate(0.916667, 0.916667)">
                <g id="home">
                    <mask id="mask-3" fill="white">
                        <use xlink:href="#path-2"></use>
                    </mask>
                    <use id="Mask" fill="url(#linearGradient-1)" xlink:href="#path-2"></use>
                    <path d="M0.261904762,6.41849486 C3.38509409,4.74708236 5.92935342,5.00170821 7.89468275,7.18237241 C10.8426767,10.4533687 8.79453986,15.3585055 10.5886044,17.876658 C11.7846474,19.5554264 14.478569,20.1919911 18.6703693,19.7863519 L25.4051734,17.876658 C26.1887493,10.0523321 25.7989312,4.83596736 24.2357191,2.22756387 C21.8909009,-1.68504137 14.295357,-4.33777882 11.3717211,-5.4320026 C9.42263055,-6.16148512 6.76699462,-4.88489071 3.40481334,-1.60221937 L0.261904762,6.41849486 Z" id="Path-3" fill="url(#linearGradient-4)" mask="url(#mask-3)"></path>
                </g>
                <g id="dot-home" transform="translate(6.154762, 7.726190)">
                    <mask id="mask-6" fill="white">
                        <use xlink:href="#path-5"></use>
                    </mask>
                    <use id="Mask" fill="#FEDD00" xlink:href="#path-5"></use>
                    <mask id="mask-9" fill="white">
                        <use xlink:href="#path-8"></use>
                    </mask>
                    <use id="Mask" fill="url(#linearGradient-7)" xlink:href="#path-8"></use>
                </g>
            </g>
            <path d="M2.61996476,6.43146733 C1.71373684,7.09771218 1.17857143,8.15538743 1.17857143,9.28016796 L1.17857143,16.8928571 C1.17857143,19.0625472 2.93745277,20.8214286 5.10714286,20.8214286 L16.8928571,20.8214286 C19.0625472,20.8214286 20.8214286,19.0625472 20.8214286,16.8928571 L20.8214286,9.28016796 C20.8214286,8.15538743 20.2862632,7.09771218 19.3800352,6.43146733 L13.3270233,1.9813859 C11.9426119,0.963587881 10.0573881,0.963587881 8.67297672,1.9813859 L2.61996476,6.43146733 Z M1.92185778,5.48190045 L7.97486974,1.03181902 C9.77460458,-0.291318398 12.2253954,-0.291318398 14.0251303,1.03181902 L20.0781422,5.48190045 C21.2864461,6.37022692 22,7.78046058 22,9.28016796 L22,16.8928571 C22,19.7134543 19.7134543,22 16.8928571,22 L5.10714286,22 C2.28654574,22 1.04678171e-15,19.7134543 6.97854473e-16,16.8928571 L0,9.28016796 C-1.74463618e-16,7.78046058 0.713553886,6.37022692 1.92185778,5.48190045 Z" id="Path-2" fill="#35405A" fill-rule="nonzero"></path>
        </g>
    </g>
</svg>