<?xml version="1.0" encoding="UTF-8"?>
<svg width="24px" height="24px" viewBox="0 0 24 24" version="1.1" xmlns="http://www.w3.org/2000/svg" xmlns:xlink="http://www.w3.org/1999/xlink">
    <!-- Generator: Sketch 52.1 (67048) - http://www.bohemiancoding.com/sketch -->
    <title>Icon / ic_orderlistnew-default</title>
    <desc>Created with Sketch.</desc>
    <g id="Icon-/-ic_orderlistnew-default" stroke="none" stroke-width="1" fill="none" fill-rule="evenodd">
        <g id="My-Order" transform="translate(1.000000, 1.000000)" fill="#35405A">
            <path d="M9.21648178,1.17857143 C6.43858322,1.17857143 5.41853784,1.47030906 4.39419922,2.01813135 C3.36986059,2.56595365 2.56595365,3.36986059 2.01813135,4.39419922 C1.47030906,5.41853784 1.17857143,6.43858322 1.17857143,9.21648178 L1.17857143,12.7835182 C1.17857143,15.5614168 1.47030906,16.5814622 2.01813135,17.6058008 C2.56595365,18.6301394 3.36986059,19.4340464 4.39419922,19.9818686 C5.41853784,20.5296909 6.43858322,20.8214286 9.21648178,20.8214286 L12.7835182,20.8214286 C15.5614168,20.8214286 16.5814622,20.5296909 17.6058008,19.9818686 C18.6301394,19.4340464 19.4340464,18.6301394 19.9818686,17.6058008 C20.5296909,16.5814622 20.8214286,15.5614168 20.8214286,12.7835182 L20.8214286,9.21648178 C20.8214286,6.43858322 20.5296909,5.41853784 19.9818686,4.39419922 C19.4340464,3.36986059 18.6301394,2.56595365 17.6058008,2.01813135 C16.5814622,1.47030906 15.5614168,1.17857143 12.7835182,1.17857143 L9.21648178,1.17857143 Z M9.21648178,0 L12.7835182,6.97854473e-16 C15.4961319,1.74463618e-16 16.8053524,0.253515037 18.1616137,0.978851514 C19.3913402,1.63651643 20.3634836,2.60865981 21.0211485,3.83838628 C21.746485,5.19464757 22,6.50386809 22,9.21648178 L22,12.7835182 C22,15.4961319 21.746485,16.8053524 21.0211485,18.1616137 C20.3634836,19.3913402 19.3913402,20.3634836 18.1616137,21.0211485 C16.8053524,21.746485 15.4961319,22 12.7835182,22 L9.21648178,22 C6.50386809,22 5.19464757,21.746485 3.83838628,21.0211485 C2.60865981,20.3634836 1.63651643,19.3913402 0.978851514,18.1616137 C0.253515037,16.8053524 3.48927236e-16,15.4961319 0,12.7835182 L3.48927236e-16,9.21648178 C0,6.50386809 0.253515037,5.19464757 0.978851514,3.83838628 C1.63651643,2.60865981 2.60865981,1.63651643 3.83838628,0.978851514 C5.19464757,0.253515037 6.50386809,5.23390854e-16 9.21648178,0 Z" id="Rectangle-3" fill-rule="nonzero"></path>
            <g id="Group" transform="translate(5.892857, 5.892857)">
                <path d="M3.91547619,1.98329493 C3.48153817,1.98329493 3.1297619,1.63151866 3.1297619,1.19758065 C3.1297619,0.763642627 3.48153817,0.411866359 3.91547619,0.411866359 L10.0440476,0.411866359 C10.4779856,0.411866359 10.8297619,0.763642627 10.8297619,1.19758065 C10.8297619,1.63151866 10.4779856,1.98329493 10.0440476,1.98329493 L3.91547619,1.98329493 Z" id="Line-2" fill-rule="nonzero"></path>
                <ellipse id="Oval-5" cx="1.19166667" cy="1.19758065" rx="1.19166667" ry="1.19758065"></ellipse>
                <path d="M3.91547619,6.08928571 C3.48153817,6.08928571 3.1297619,5.73750945 3.1297619,5.30357143 C3.1297619,4.86963341 3.48153817,4.51785714 3.91547619,4.51785714 L10.0440476,4.51785714 C10.4779856,4.51785714 10.8297619,4.86963341 10.8297619,5.30357143 C10.8297619,5.73750945 10.4779856,6.08928571 10.0440476,6.08928571 L3.91547619,6.08928571 Z" id="Line-2" fill-rule="nonzero"></path>
                <ellipse id="Oval-5" cx="1.19166667" cy="5.30357143" rx="1.19166667" ry="1.19758065"></ellipse>
                <path d="M3.91547619,10.1952765 C3.48153817,10.1952765 3.1297619,9.84350023 3.1297619,9.40956221 C3.1297619,8.97562419 3.48153817,8.62384793 3.91547619,8.62384793 L10.0440476,8.62384793 C10.4779856,8.62384793 10.8297619,8.97562419 10.8297619,9.40956221 C10.8297619,9.84350023 10.4779856,10.1952765 10.0440476,10.1952765 L3.91547619,10.1952765 Z" id="Line-2" fill-rule="nonzero"></path>
                <ellipse id="Oval-5" cx="1.19166667" cy="9.40956221" rx="1.19166667" ry="1.19758065"></ellipse>
            </g>
        </g>
    </g>
</svg>