<?xml version="1.0" encoding="UTF-8"?>
<svg width="24px" height="24px" viewBox="0 0 24 24" version="1.1" xmlns="http://www.w3.org/2000/svg" xmlns:xlink="http://www.w3.org/1999/xlink">
    <!-- Generator: Sketch 52.1 (67048) - http://www.bohemiancoding.com/sketch -->
    <title>Icon / ic_tixnew-default</title>
    <desc>Created with Sketch.</desc>
    <g id="Icon-/-ic_tixnew-default" stroke="none" stroke-width="1" fill="none" fill-rule="evenodd">
        <g id="TIX-point" transform="translate(1.000000, 1.000000)" fill="#35405A" fill-rule="nonzero">
            <path d="M11,1.17857143 C5.57577478,1.17857143 1.17857143,5.57577478 1.17857143,11 C1.17857143,16.4242252 5.57577478,20.8214286 11,20.8214286 C16.4242252,20.8214286 20.8214286,16.4242252 20.8214286,11 C20.8214286,5.57577478 16.4242252,1.17857143 11,1.17857143 Z M11,0 C17.0751322,-1.04678171e-15 22,4.92486775 22,11 C22,17.0751322 17.0751322,22 11,22 C4.92486775,22 6.97854473e-16,17.0751322 0,11 C-6.97854473e-16,4.92486775 4.92486775,1.04678171e-15 11,0 Z" id="Rectangle-3"></path>
            <g id="Group-2" transform="translate(3.614286, 7.150000)">
                <path d="M8.3014846,1.77366271 C8.09782172,1.51980957 8.13850897,1.14891954 8.39236212,0.945256663 C8.64621527,0.741593783 9.01710529,0.782281033 9.22076817,1.03613418 L11.1470219,3.43708998 C11.3506848,3.69094312 11.3099975,4.06183314 11.0561444,4.26549602 C10.8022912,4.46915891 10.4314012,4.42847165 10.2277383,4.17461851 L8.3014846,1.77366271 Z" id="Line"></path>
                <path d="M10.1873613,3.49402278 C10.3595811,3.21787003 10.7230588,3.13361569 10.9992116,3.30583545 C11.2753643,3.47805521 11.3596187,3.84153295 11.1873989,4.1176857 L9.40931854,6.96882071 C9.23709878,7.24497346 8.87362104,7.3292278 8.59746829,7.15700804 C8.32131553,6.98478828 8.2370612,6.62131054 8.40928096,6.34515779 L10.1873613,3.49402278 Z" id="Line"></path>
                <path d="M1.33280423,2.16240399 C1.00735072,2.16240399 0.743518519,1.89857179 0.743518519,1.57311828 C0.743518519,1.24766477 1.00735072,0.983832565 1.33280423,0.983832565 L4.9827056,0.983832565 C5.30815912,0.983832565 5.57199132,1.24766477 5.57199132,1.57311828 C5.57199132,1.89857179 5.30815912,2.16240399 4.9827056,2.16240399 L1.33280423,2.16240399 Z" id="Line"></path>
                <path d="M2.7223545,1.80967742 C2.7223545,1.48422391 2.9861867,1.22039171 3.31164021,1.22039171 C3.63709372,1.22039171 3.90092593,1.48422391 3.90092593,1.80967742 L3.90092593,6.65698925 C3.90092593,6.98244276 3.63709372,7.24627496 3.31164021,7.24627496 C2.9861867,7.24627496 2.7223545,6.98244276 2.7223545,6.65698925 L2.7223545,1.80967742 Z" id="Line"></path>
                <path d="M6.13681658,1.45483871 C6.13681658,1.1293852 6.40064878,0.865552995 6.72610229,0.865552995 C7.05155581,0.865552995 7.31538801,1.1293852 7.31538801,1.45483871 L7.31538801,6.65698925 C7.31538801,6.98244276 7.05155581,7.24627496 6.72610229,7.24627496 C6.40064878,7.24627496 6.13681658,6.98244276 6.13681658,6.65698925 L6.13681658,1.45483871 Z" id="Line"></path>
                <path d="M11.497619,5.38214286 C11.3023469,5.12178005 11.3551134,4.75241497 11.6154762,4.55714286 C11.875839,4.36187075 12.2452041,4.41463719 12.4404762,4.675 L13.6190476,6.24642857 C13.8143197,6.50679138 13.7615533,6.87615646 13.5011905,7.07142857 C13.2408277,7.26670068 12.8714626,7.21393424 12.6761905,6.95357143 L11.497619,5.38214286 Z" id="Line"></path>
                <path d="M12.459363,2.99830547 C12.2788338,3.26909916 11.9129644,3.34227305 11.6421707,3.16174392 C11.371377,2.9812148 11.2982031,2.61534536 11.4787323,2.34455167 L12.2644466,1.16598024 C12.4449757,0.89518655 12.8108451,0.822012663 13.0816388,1.00254179 C13.3524325,1.18307092 13.4256064,1.54894035 13.2450773,1.81973404 L12.459363,2.99830547 Z" id="Line"></path>
            </g>
        </g>
    </g>
</svg>