<?xml version="1.0" encoding="UTF-8"?>
<svg width="24px" height="24px" viewBox="0 0 24 24" version="1.1" xmlns="http://www.w3.org/2000/svg" xmlns:xlink="http://www.w3.org/1999/xlink">
    <!-- Generator: Sketch 52.1 (67048) - http://www.bohemiancoding.com/sketch -->
    <title>Icon / ic_profilenew-default</title>
    <desc>Created with Sketch.</desc>
    <g id="Icon-/-ic_profilenew-default" stroke="none" stroke-width="1" fill="none" fill-rule="evenodd">
        <g id="Group-16" transform="translate(1.000000, 1.000000)" fill="#35405A" fill-rule="nonzero">
            <g id="Profile">
                <path d="M11,20.8214286 C16.4242252,20.8214286 20.8214286,16.4242252 20.8214286,11 C20.8214286,5.57577478 16.4242252,1.17857143 11,1.17857143 C5.57577478,1.17857143 1.17857143,5.57577478 1.17857143,11 C1.17857143,16.4242252 5.57577478,20.8214286 11,20.8214286 Z M11,22 C4.92486775,22 0,17.0751322 0,11 C0,4.92486775 4.92486775,0 11,0 C17.0751322,0 22,4.92486775 22,11 C22,17.0751322 17.0751322,22 11,22 Z" id="Mask"></path>
                <path d="M11,13.1607143 C8.72182541,13.1607143 6.875,11.3138889 6.875,9.03571429 C6.875,6.75753969 8.72182541,4.91071429 11,4.91071429 C13.2781746,4.91071429 15.125,6.75753969 15.125,9.03571429 C15.125,11.3138889 13.2781746,13.1607143 11,13.1607143 Z M11,11.9821429 C12.6272676,11.9821429 13.9464286,10.6629819 13.9464286,9.03571429 C13.9464286,7.40844672 12.6272676,6.08928571 11,6.08928571 C9.37273243,6.08928571 8.05357143,7.40844672 8.05357143,9.03571429 C8.05357143,10.6629819 9.37273243,11.9821429 11,11.9821429 Z" id="Oval-3"></path>
            </g>
            <path d="M18.8983796,18.2153456 L17.7966286,18.6338852 C16.7334656,15.8352466 14.0441009,13.9464286 11,13.9464286 C7.9991979,13.9464286 5.34028853,15.7818595 4.24683395,18.522276 L3.15218469,18.0854996 C4.42290501,14.9008197 7.51283545,12.7678571 11,12.7678571 C14.5375337,12.7678571 17.6627889,14.9628135 18.8983796,18.2153456 Z" id="Oval-4"></path>
        </g>
    </g>
</svg>