<svg xmlns="http://www.w3.org/2000/svg" xmlns:xlink="http://www.w3.org/1999/xlink" width="132" height="39" viewBox="0 0 132 39">
    <defs>
        <path id="a" d="M.473.141l11.615 11.415L.375 23.066c-.182-.06-.298-.238-.298-.499V11.556.763"/>
        <linearGradient id="b" x1="29.595%" x2="29.595%" y1="-1.6%" y2="101.177%">
            <stop offset="0%" stop-color="#87C8B2"/>
            <stop offset="100%" stop-color="#2C729D"/>
        </linearGradient>
        <path id="d" d="M.052.141C.236.091.464.13.692.26l.714.408L4.26 2.3l5.786 3.311 4.85 2.775-3.227 3.17L.052.141"/>
        <linearGradient id="e" x1="0%" x2="75.09%" y1="23.908%" y2="23.908%">
            <stop offset="0%" stop-color="#53B8A0"/>
            <stop offset="100%" stop-color="#DBE596"/>
        </linearGradient>
        <path id="g" d="M.165 11.607L11.878.097l3.226 3.17-4.848 2.774-8.783 5.025-.8.458c-.192.107-.37.13-.508.083"/>
        <linearGradient id="h" x1="37.544%" x2="37.544%" y1="49.789%" y2="101.55%">
            <stop offset="0%" stop-color="#7D4589"/>
            <stop offset="100%" stop-color="#DA3E3E"/>
        </linearGradient>
        <path id="j" d="M8.023 2.736l.06.034c.404.249.431.651-.082.95l-.75.43-3.92 2.242-3.226-3.17L3.33.052s4.225 2.434 4.692 2.684"/>
        <linearGradient id="k" x1="80.794%" x2="80.794%" y1="35.986%" y2="63.59%">
            <stop offset="0%" stop-color="#F7C374"/>
            <stop offset="100%" stop-color="#E88172"/>
        </linearGradient>
    </defs>
    <g fill="none" fill-rule="evenodd">
        <path fill="#000" d="M0 4.822A4.236 4.236 0 0 1 4.212.589L127.416.02a4.183 4.183 0 0 1 4.212 4.186v30.54a4.209 4.209 0 0 1-4.212 4.206H4.212A4.214 4.214 0 0 1 0 34.738V4.822z"/>
        <path fill="#FFF" fill-rule="nonzero" d="M65.348 23.368c-2.019 0-3.617 1.491-3.617 3.562 0 1.988 1.598 3.562 3.617 3.562 2.018 0 3.616-1.491 3.616-3.562 0-2.154-1.598-3.562-3.616-3.562zm0 5.633c-1.094 0-2.019-.911-2.019-2.154 0-1.242.925-2.153 2.019-2.153 1.093 0 2.018.828 2.018 2.153 0 1.243-.925 2.154-2.018 2.154zm-7.822-5.633c-2.018 0-3.616 1.491-3.616 3.562 0 1.988 1.598 3.562 3.616 3.562 2.019 0 3.617-1.491 3.617-3.562 0-2.154-1.598-3.562-3.617-3.562zm0 5.633c-1.093 0-2.018-.911-2.018-2.154 0-1.242.925-2.153 2.018-2.153 1.094 0 2.019.828 2.019 2.153 0 1.243-.925 2.154-2.019 2.154zm-9.335-4.556v1.491h3.616c-.084.828-.42 1.491-.84 1.905-.505.497-1.346 1.077-2.776 1.077-2.271 0-3.953-1.74-3.953-3.976 0-2.236 1.766-3.976 3.953-3.976 1.177 0 2.102.497 2.775 1.077l1.094-1.077c-.926-.828-2.103-1.49-3.785-1.49-3.028 0-5.635 2.484-5.635 5.466s2.607 5.467 5.635 5.467c1.682 0 2.86-.497 3.869-1.574 1.009-.994 1.345-2.402 1.345-3.479 0-.331 0-.662-.084-.91h-5.214zm38.182 1.16c-.336-.829-1.177-2.237-3.027-2.237s-3.364 1.408-3.364 3.562c0 1.988 1.513 3.562 3.532 3.562 1.598 0 2.607-.994 2.943-1.574l-1.177-.828c-.42.58-.925.994-1.766.994s-1.346-.332-1.766-1.077l4.794-1.988-.169-.414zm-4.878 1.16c0-1.326 1.094-2.071 1.85-2.071.59 0 1.178.331 1.346.745l-3.196 1.325zm-3.952 3.395h1.598V19.807h-1.598V30.16zm-2.523-6.046c-.421-.414-1.094-.828-1.935-.828-1.766 0-3.448 1.573-3.448 3.561a3.455 3.455 0 0 0 3.448 3.479c.841 0 1.514-.414 1.85-.828h.085v.497c0 1.325-.757 2.07-1.935 2.07-.925 0-1.598-.662-1.766-1.242l-1.346.58c.42.91 1.43 2.07 3.196 2.07 1.85 0 3.364-1.076 3.364-3.644v-6.295H75.02v.58zM73.17 29c-1.094 0-2.02-.911-2.02-2.154 0-1.242.926-2.153 2.02-2.153 1.093 0 1.934.91 1.934 2.153 0 1.243-.841 2.154-1.935 2.154zm20.52-9.194h-3.784V30.16h1.598v-3.893h2.186c1.766 0 3.448-1.242 3.448-3.23s-1.682-3.23-3.448-3.23zm.084 4.97h-2.27v-3.562h2.27c1.178 0 1.85.994 1.85 1.74-.083.91-.756 1.821-1.85 1.821zm9.672-1.491c-1.177 0-2.355.497-2.775 1.573l1.43.58c.336-.58.84-.745 1.43-.745.84 0 1.597.497 1.681 1.325v.083c-.252-.166-.925-.414-1.598-.414-1.513 0-3.027.828-3.027 2.319 0 1.408 1.261 2.319 2.607 2.319 1.093 0 1.598-.497 2.018-.994h.084v.828h1.514v-3.975c-.168-1.823-1.598-2.9-3.364-2.9zM103.278 29c-.505 0-1.262-.249-1.262-.911 0-.829.926-1.077 1.682-1.077.673 0 1.01.165 1.43.331-.168.994-1.009 1.657-1.85 1.657zm8.83-5.467l-1.765 4.473h-.085l-1.85-4.473h-1.682l2.776 6.295-1.598 3.479h1.598l4.289-9.774h-1.682zM97.98 30.16h1.597V19.807H97.98V30.16z"/>
        <g transform="translate(11.123 7.912)">
            <mask id="c" fill="#fff">
                <use xlink:href="#a"/>
            </mask>
            <path fill="url(#b)" d="M15.315 8.386l-4.85-2.775L1.114.26C.593-.038.077.142.077.763v21.804c0 .466.37.667.82.408l9.569-5.475 4.848-2.774 4.661-2.666c.547-.314.494-.743.033-.99-.461-.245-4.693-2.684-4.693-2.684" mask="url(#c)"/>
        </g>
        <g transform="translate(11.544 7.912)">
            <mask id="f" fill="#fff">
                <use xlink:href="#d"/>
            </mask>
            <path fill="url(#e)" d="M14.894 8.386L10.045 5.61.693.26C.173-.038-.344.142-.344.763v21.804c0 .466.37.667.821.408l9.568-5.475 4.849-2.774 4.66-2.666c.547-.314.495-.743.033-.99-.46-.245-4.693-2.684-4.693-2.684" mask="url(#f)"/>
        </g>
        <g transform="translate(11.334 19.371)">
            <mask id="i" fill="#fff">
                <use xlink:href="#g"/>
            </mask>
            <path fill="url(#h)" d="M15.104-3.074l-4.848-2.774L.903-11.2c-.52-.297-1.037-.117-1.037.504V11.108c0 .465.37.666.821.408l9.569-5.475 4.848-2.774L19.764.6c.548-.313.495-.742.034-.989-.462-.246-4.694-2.685-4.694-2.685" mask="url(#i)"/>
        </g>
        <g transform="translate(23.107 16.246)">
            <mask id="l" fill="#fff">
                <use xlink:href="#j"/>
            </mask>
            <path fill="url(#k)" d="M3.331.051l-4.849-2.774-9.352-5.351c-.52-.298-1.037-.118-1.037.503v21.804c0 .466.37.666.821.408l9.568-5.475 4.849-2.774 4.66-2.666c.547-.314.495-.743.033-.99C7.564 2.49 3.331.052 3.331.052" mask="url(#l)"/>
        </g>
        <g fill="#FFF">
            <path d="M42.651 11.097c0-1.505 1.139-2.472 2.555-2.472.95 0 1.57.444 1.957.989l-.694.394a1.58 1.58 0 0 0-1.263-.638c-.963 0-1.679.717-1.679 1.727 0 .997.716 1.727 1.68 1.727.496 0 .934-.222 1.153-.43v-.738H44.9v-.738h2.307v1.784a2.651 2.651 0 0 1-2 .875c-1.417 0-2.556-.982-2.556-2.48zM48.263 13.484v-4.78H51.6v.738h-2.482v1.232h2.431v.738h-2.431v1.334h2.482v.738h-3.336zM53.963 13.484V9.442h-1.475v-.738h3.804v.738h-1.474v4.042zM59.26 13.484v-4.78h.854v4.78zM62.493 13.484V9.442H61.02v-.738h3.803v.738h-1.474v4.042zM67.58 11.097c0-1.426 1.029-2.472 2.49-2.472 1.451 0 2.488 1.046 2.488 2.472s-1.037 2.473-2.489 2.473c-1.46 0-2.49-1.047-2.49-2.473zm4.102 0c0-.989-.635-1.727-1.613-1.727-.985 0-1.614.738-1.614 1.727 0 .982.629 1.727 1.614 1.727.978 0 1.613-.745 1.613-1.727zM76.95 13.484l-2.54-3.419v3.419h-.854v-4.78h.877l2.489 3.31v-3.31h.854v4.78z"/>
        </g>
    </g>
</svg>
