<svg xmlns="http://www.w3.org/2000/svg" width="24" height="24"><g fill="#8A93A7" fill-rule="evenodd"><path d="M16.984 2H7C4.254 2 2 4.254 2 7.016V17c0 2.746 2.254 5 5 5h9.984A5.03 5.03 0 0 0 22 16.984V7.016A5.03 5.03 0 0 0 16.984 2zM14.12 17.667C9.186 19.37 4.63 14.814 6.333 9.88a5.74 5.74 0 0 1 3.548-3.548c4.933-1.702 9.487 2.853 7.785 7.786a5.74 5.74 0 0 1-3.548 3.548zm4.82-11.715a.78.78 0 0 1-.77.65.79.79 0 0 1-.599-.28.47.47 0 0 1-.041-.054c-.172-.264-.178-.577-.03-.83a.77.77 0 0 1 1.061-.284c.254.146.406.42.39.734-.001.02-.004.043-.008.064z" fill-rule="nonzero"/><path d="M12 8.142c-2.128 0-3.86 1.73-3.86 3.858s1.73 3.858 3.86 3.858 3.86-1.73 3.86-3.858-1.73-3.858-3.86-3.858z"/></g></svg>