<svg xmlns="http://www.w3.org/2000/svg" width="100" height="100" viewBox="0 0 100 100">
    <g fill="none" fill-rule="evenodd">
        <circle cx="50" cy="50" r="50" fill="#F3F6F8"/>
        <path fill="#FEDD00" d="M46.06 22.01l14.383 6.197a8 8 0 0 1 4.252 4.35l13.656 33.8a5 5 0 0 1-2.762 6.51l-20.173 8.15a5 5 0 0 1-6.509-2.763L35.304 44.586a8 8 0 0 1 .134-6.305l6.703-14.756a3 3 0 0 1 3.918-1.514zm4.503 17.956c2.218-.896 3.281-3.44 2.376-5.68-.906-2.242-3.438-3.333-5.655-2.437-2.218.896-3.281 3.44-2.376 5.68.906 2.242 3.438 3.333 5.655 2.437z"/>
        <g transform="translate(29.054 19.595)">
            <path fill="#0064D2" d="M18.429 1.92l11.015 11.134a8 8 0 0 1 2.313 5.627v36.454a5 5 0 0 1-5 5H5a5 5 0 0 1-5-5V18.823a8 8 0 0 1 2.486-5.796l11.742-11.17a3 3 0 0 1 4.2.063zm-2.55 18.335c2.391 0 4.33-1.96 4.33-4.377s-1.939-4.377-4.33-4.377c-2.392 0-4.331 1.96-4.331 4.377 0 2.418 1.939 4.377 4.33 4.377z"/>
            <path fill="#FFF" fill-rule="nonzero" d="M10.785 50.61a.955.955 0 0 1-1.361 0 .98.98 0 0 1 0-1.376l12.029-12.158a.955.955 0 0 1 1.361 0 .98.98 0 0 1 0 1.375L10.784 50.61z"/>
            <ellipse cx="11.067" cy="39.223" fill="#FFF" rx="3.368" ry="3.404"/>
            <ellipse cx="20.69" cy="48.949" fill="#FFF" rx="3.368" ry="3.404"/>
        </g>
        <path stroke="#009AFF" stroke-linecap="round" stroke-linejoin="round" stroke-width="3" d="M47.297 32.824c.63 5.636 5.394 3.296 14.291-7.022 6.352-7.366 2.382-10.563-2.72-9.326-1.916.465-4.98 2.184-9.189 5.157"/>
    </g>
</svg>
