<svg xmlns="http://www.w3.org/2000/svg" width="100" height="100" viewBox="0 0 100 100">
    <g fill="none" fill-rule="evenodd">
        <circle cx="50" cy="50" r="50" fill="#F3F6F8"/>
        <g transform="translate(16 26)">
            <g fill-rule="nonzero">
                <path fill="#0064D2" d="M53.433 10H6.813C3.14 10 0 13.411 0 17.645v20.33h60v-20.33C60 13.41 57.105 10 53.433 10z"/>
                <path fill="#009AFF" d="M0 41.033C0 44.319 3.139 47 6.812 47h46.62C57.104 47 60 44.319 60 41.033v-.35H0v.35z"/>
            </g>
            <g fill-rule="nonzero">
                <path fill="#0064D2" stroke="#F3F6F8" stroke-width="2.5" d="M69.2 12.3v.032c.18 9.745-.176 14.595-2.164 20.147-2.748 7.674-8.324 13.276-17.56 16.583l-.167.047-.808.168-.808-.168-.167-.047c-12.167-4.344-17.824-12.44-19.319-24.128-.457-3.58-.517-6.55-.41-12.4l.005-.234c.045-1.028.054-1.828.054-3.618 0-1.657 1.27-2.972 2.913-2.972 6.596 0 11.541-1.937 15.708-6.143 1.147-1.09 2.9-1.09 4.076.027 4.139 4.179 9.083 6.116 15.68 6.116 1.643 0 2.913 1.315 2.913 2.972 0 1.79.009 2.59.054 3.618z"/>
                <path fill="#FEDD00" d="M52.67 21.51v-4.382c0-2.226-1.87-4.037-4.17-4.037s-4.17 1.81-4.17 4.037v4.382c-2.054 1.414-3.413 3.839-3.413 6.59 0 4.356 3.402 7.9 7.583 7.9s7.583-3.544 7.583-7.9c0-2.751-1.359-5.176-3.412-6.59zm-7.582-.457v-3.925c0-1.79 1.53-3.247 3.412-3.247s3.413 1.457 3.413 3.247v3.925c-.072-.038-.145-.07-.217-.106a7.49 7.49 0 0 0-.752-.317c-.099-.036-.197-.07-.297-.102a7.365 7.365 0 0 0-.722-.182 7.296 7.296 0 0 0-.6-.096l-.136-.013a7.05 7.05 0 0 0-.689-.036c-.23 0-.46.014-.689.036-.045.004-.09.007-.136.013a7.296 7.296 0 0 0-1.321.278c-.1.03-.199.066-.297.101a7.398 7.398 0 0 0-.753.318c-.072.035-.145.068-.216.106zm4.929 7.837c0 .872-.68 1.58-1.517 1.58-.836 0-1.517-.708-1.517-1.58v-2.37c0-.871.68-1.58 1.517-1.58.836 0 1.517.709 1.517 1.58v2.37z"/>
            </g>
            <circle cx="10.5" cy="24.5" r="4.5" fill="#FEDD00"/>
            <circle cx="16.5" cy="24.5" r="4.5" fill="#FFF" stroke="#0064D2"/>
        </g>
    </g>
</svg>
