<?xml version="1.0" encoding="UTF-8"?>
<svg width="400px" height="105px" viewBox="0 0 400 105" version="1.1" xmlns="http://www.w3.org/2000/svg" xmlns:xlink="http://www.w3.org/1999/xlink">
    <!-- Generator: Sketch 52.1 (67048) - http://www.bohemiancoding.com/sketch -->
    <title>tiket blue</title>
    <desc>Created with Sketch.</desc>
    <defs>
        <polygon id="path-1" points="0 0.344 27.0928 0.344 27.0928 53.264 0 53.264"></polygon>
        <polygon id="path-3" points="0.7302 0.287 57.246 0.287 57.246 42.172 0.7302 42.172"></polygon>
        <polygon id="path-5" points="0.0713 0.9604 85.1133 0.9604 85.1133 86 0.0713 86"></polygon>
    </defs>
    <g id="tiket-blue" stroke="none" stroke-width="1" fill="none" fill-rule="evenodd">
        <g id="Group-22" transform="translate(4.000000, 9.000000)">
            <g id="Group-3" transform="translate(0.000000, 11.040000)">
                <mask id="mask-2" fill="white">
                    <use xlink:href="#path-1"></use>
                </mask>
                <g id="Clip-2"></g>
                <path d="M27.0928,48.415 C27.0928,49.084 26.9648,49.711 26.7148,50.296 C26.4648,50.882 26.0308,51.398 25.4178,51.843 C24.8068,52.288 23.9398,52.638 22.8248,52.888 C21.7118,53.139 20.2928,53.264 18.5648,53.264 C14.8528,53.264 12.0308,52.331 10.0958,50.463 C8.1608,48.598 7.1918,45.852 7.1918,42.228 L7.1918,21.16 L4.5998,21.16 C3.3188,21.16 2.2308,20.7 1.3408,19.78 C0.4468,18.862 -0.0002,17.732 -0.0002,16.395 C-0.0002,15.17 0.4468,14.11 1.3408,13.218 C2.2308,12.327 3.3188,11.88 4.5998,11.88 L7.1918,11.88 L7.1918,5.609 C7.1918,4.161 7.7038,2.922 8.7298,1.89 C9.7498,0.859 11.0348,0.344 12.5858,0.344 C14.0218,0.344 15.2538,0.859 16.2758,1.89 C17.2998,2.922 17.8128,4.161 17.8128,5.609 L17.8128,11.88 L21.9908,11.88 C23.2168,11.88 24.2748,12.34 25.1678,13.26 C26.0578,14.18 26.5048,15.28 26.5048,16.561 C26.5048,17.845 26.0578,18.932 25.1678,19.823 C24.2748,20.716 23.2168,21.16 21.9908,21.16 L17.8128,21.16 L17.8128,39.386 C17.8128,41.002 18.2128,42.145 19.0218,42.812 C19.8288,43.482 20.6548,43.817 21.4888,43.817 L21.9468,43.817 L22.4078,43.817 C23.9118,43.817 25.0698,44.265 25.8768,45.154 C26.6858,46.047 27.0928,47.134 27.0928,48.415" id="Fill-1" fill="#0064D2" mask="url(#mask-2)"></path>
            </g>
            <path d="M42.3057,58.5351 C42.3057,59.9851 41.7897,61.2241 40.7587,62.2561 C39.7277,63.2871 38.4587,63.8031 36.9547,63.8031 C35.5057,63.8031 34.2677,63.2871 33.2367,62.2561 C32.2037,61.2241 31.6887,59.9851 31.6887,58.5351 L31.6887,27.6011 C31.6887,26.1531 32.2037,24.9281 33.2367,23.9241 C34.2677,22.9201 35.5617,22.4181 37.1217,22.4181 C38.5717,22.4181 39.7997,22.9201 40.8017,23.9241 C41.8067,24.9281 42.3057,26.1531 42.3057,27.6011 L42.3057,58.5351 Z" id="Fill-4" fill="#0064D2"></path>
            <path d="M84.1084,58.4511 C84.1084,59.7361 83.6194,60.9481 82.6434,62.0881 C81.6684,63.2311 80.4004,63.8031 78.8394,63.8031 C78.0044,63.8031 77.1804,63.6221 76.3764,63.2591 C75.5644,62.8971 74.9104,62.3281 74.4084,61.5461 L64.9624,47.7521 L60.1144,52.9341 L60.1144,58.5351 C60.1144,59.9851 59.5984,61.2241 58.5664,62.2561 C57.5314,63.2871 56.2674,63.8031 54.7624,63.8031 C53.3114,63.8031 52.0724,63.2871 51.0414,62.2561 C50.0094,61.2241 49.4964,59.9851 49.4964,58.5351 L49.4964,12.2191 C49.4964,10.7711 50.0094,9.5441 51.0414,8.5411 C52.0724,7.5371 53.3704,7.0351 54.9274,7.0351 C56.3764,7.0351 57.6044,7.5371 58.6104,8.5411 C59.6124,9.5441 60.1144,10.7711 60.1144,12.2191 L60.1144,40.8951 L74.4084,24.0081 C75.3574,22.8921 76.5524,22.3361 78.0044,22.3361 C79.3414,22.3361 80.5114,22.8371 81.5134,23.8401 C82.5184,24.8441 83.0214,26.0131 83.0214,27.3501 C83.0214,28.5211 82.6304,29.5821 81.8484,30.5281 L72.4864,41.2291 L83.1034,55.4421 C83.7734,56.3911 84.1084,57.3931 84.1084,58.4511" id="Fill-6" fill="#0064D2"></path>
            <path d="M115.793,39.3066 C115.737,38.3596 115.511,37.3566 115.123,36.2966 C114.732,35.2396 114.147,34.2776 113.366,33.4116 C112.587,32.5496 111.572,31.8246 110.316,31.2406 C109.063,30.6546 107.571,30.3616 105.843,30.3616 C104.171,30.3616 102.735,30.6406 101.536,31.1976 C100.337,31.7556 99.352,32.4666 98.569,33.3296 C97.788,34.1946 97.177,35.1556 96.731,36.2126 C96.283,37.2736 96.008,38.3026 95.896,39.3066 L115.793,39.3066 Z M125.907,41.6476 C125.907,42.9296 125.431,44.0596 124.485,45.0336 C123.54,46.0086 122.367,46.4966 120.974,46.4966 L96.063,46.4966 C96.228,47.7806 96.606,48.9926 97.19,50.1336 C97.774,51.2776 98.557,52.2656 99.531,53.1006 C100.508,53.9376 101.678,54.6066 103.041,55.1076 C104.407,55.6106 105.955,55.8596 107.684,55.8596 C108.796,55.8596 110.066,55.6926 111.486,55.3586 C112.906,55.0256 114.26,54.5226 115.541,53.8526 C116.211,53.5206 116.907,53.3536 117.633,53.3536 C118.747,53.3536 119.775,53.7426 120.725,54.5226 C121.671,55.3046 122.147,56.3336 122.147,57.6176 C122.147,59.0096 121.531,60.0696 120.309,60.7936 C118.3,62.0196 116.112,62.9126 113.743,63.4676 C111.375,64.0246 108.964,64.3036 106.513,64.3036 C103.445,64.3036 100.59,63.8026 97.945,62.8006 C95.295,61.7956 93.012,60.3746 91.086,58.5356 C89.164,56.6976 87.66,54.4676 86.572,51.8486 C85.485,49.2286 84.943,46.3036 84.943,43.0696 C84.943,40.1716 85.456,37.4256 86.49,34.8336 C87.519,32.2426 88.954,29.9996 90.797,28.1036 C92.633,26.2096 94.835,24.7046 97.4,23.5896 C99.963,22.4746 102.781,21.9176 105.843,21.9176 C108.129,21.9176 110.258,22.2396 112.239,22.8786 C114.217,23.5196 116.014,24.4256 117.633,25.5956 C119.248,26.7656 120.655,28.2016 121.855,29.9026 C123.048,31.6026 124.015,33.4836 124.738,35.5446 C125.014,36.4926 125.281,37.4956 125.53,38.5546 C125.782,39.6146 125.907,40.6446 125.907,41.6476 Z" id="Fill-8" fill="#0064D2"></path>
            <path d="M152.4048,59.455 C152.4048,60.124 152.2788,60.751 152.0288,61.336 C151.7808,61.922 151.3468,62.438 150.7358,62.883 C150.1218,63.328 149.2578,63.678 148.1438,63.928 C147.0268,64.179 145.6048,64.304 143.8788,64.304 C140.1688,64.304 137.3468,63.371 135.4128,61.503 C133.4788,59.638 132.5128,56.892 132.5128,53.268 L132.5128,32.2 L129.9218,32.2 C128.6398,32.2 127.5498,31.74 126.6588,30.82 C125.7668,29.902 125.3228,28.772 125.3228,27.435 C125.3228,26.21 125.7668,25.15 126.6588,24.258 C127.5498,23.367 128.6398,22.92 129.9218,22.92 L132.5128,22.92 L132.5128,16.649 C132.5128,15.201 133.0218,13.962 134.0468,12.93 C135.0678,11.899 136.3518,11.384 137.9028,11.384 C139.3378,11.384 140.5698,11.899 141.5918,12.93 C142.6118,13.962 143.1278,15.201 143.1278,16.649 L143.1278,22.92 L147.3058,22.92 C148.5318,22.92 149.5898,23.38 150.4828,24.3 C151.3768,25.22 151.8198,26.32 151.8198,27.601 C151.8198,28.885 151.3768,29.972 150.4828,30.863 C149.5898,31.756 148.5318,32.2 147.3058,32.2 L143.1278,32.2 L143.1278,50.426 C143.1278,52.042 143.5298,53.185 144.3398,53.852 C145.1458,54.522 145.9688,54.857 146.8038,54.857 L147.2628,54.857 L147.7228,54.857 C149.2308,54.857 150.3838,55.305 151.1928,56.194 C152.0008,57.087 152.4048,58.174 152.4048,59.455" id="Fill-10" fill="#0064D2"></path>
            <path d="M288.1582,57.6074 C288.1582,57.9424 288.0892,58.3054 287.9512,58.6944 C287.8092,59.0844 287.5442,59.4474 287.1562,59.7804 C285.6512,61.2864 283.8382,62.4854 281.7192,63.3764 C279.6032,64.2674 277.0382,64.7124 274.0292,64.7124 C270.9632,64.7124 268.1782,64.1834 265.6682,63.1254 C263.1622,62.0664 261.0132,60.5894 259.2292,58.6944 C257.4492,56.8004 256.0562,54.5554 255.0512,51.9644 C254.0492,49.3734 253.5452,46.5444 253.5452,43.4784 C253.5452,40.4684 254.0492,37.6684 255.0512,35.0764 C256.0562,32.4844 257.4492,30.2404 259.2292,28.3454 C261.0132,26.4514 263.1622,24.9744 265.6682,23.9164 C268.1782,22.8554 270.9632,22.3274 274.0292,22.3274 C275.5332,22.3274 276.9562,22.4524 278.2932,22.7034 C279.6332,22.9534 280.8552,23.3164 281.9722,23.7894 C283.0862,24.2634 284.1042,24.8364 285.0242,25.5034 C285.9432,26.1714 286.7652,26.8964 287.4912,27.6764 C287.8792,28.2354 288.0762,28.8204 288.0762,29.4324 C288.0762,30.3804 287.7242,31.1754 287.0272,31.8164 C286.3312,32.4574 285.5402,32.7774 284.6462,32.7774 C283.7562,32.7774 282.9742,32.4714 282.3072,31.8574 C281.1902,30.8534 279.9782,30.1164 278.6672,29.6414 C277.3592,29.1684 275.9502,28.9314 274.4462,28.9314 C272.3832,28.9314 270.5582,29.2954 268.9722,30.0194 C267.3832,30.7444 266.0042,31.7594 264.8342,33.0694 C263.6642,34.3794 262.7702,35.9124 262.1602,37.6684 C261.5422,39.4244 261.2362,41.3614 261.2362,43.4784 C261.2362,45.5964 261.5422,47.5474 262.1602,49.3304 C262.7702,51.1164 263.6642,52.6614 264.8342,53.9704 C266.0042,55.2804 267.3832,56.2974 268.9722,57.0224 C270.5582,57.7474 272.3832,58.1084 274.4462,58.1084 C277.5112,58.1084 280.1332,57.1064 282.3072,55.0984 C282.9742,54.5984 283.7562,54.3464 284.6462,54.3464 C285.5402,54.3464 286.3472,54.6544 287.0702,55.2664 C287.7972,55.8804 288.1582,56.6614 288.1582,57.6074" id="Fill-12" fill="#0064D2"></path>
            <path d="M322.9277,43.4785 C322.9277,41.5285 322.6487,39.6895 322.0897,37.9605 C321.5337,36.2345 320.7127,34.7005 319.6247,33.3615 C318.5377,32.0255 317.2267,30.9525 315.6937,30.1445 C314.1627,29.3355 312.3627,28.9315 310.3027,28.9315 C308.2957,28.9315 306.5117,29.3355 304.9507,30.1445 C303.3907,30.9525 302.0677,32.0255 300.9837,33.3615 C299.8947,34.7005 299.0737,36.2345 298.5157,37.9605 C297.9567,39.6895 297.6777,41.5285 297.6777,43.4785 C297.6777,45.4295 297.9567,47.2825 298.5157,49.0385 C299.0737,50.7935 299.8947,52.3415 300.9837,53.6785 C302.0677,55.0155 303.3907,56.0895 304.9507,56.8975 C306.5117,57.7065 308.2957,58.1085 310.3027,58.1085 C312.3627,58.1085 314.1627,57.7065 315.6937,56.8975 C317.2267,56.0895 318.5377,55.0155 319.6247,53.6785 C320.7127,52.3415 321.5337,50.7935 322.0897,49.0385 C322.6487,47.2825 322.9277,45.4295 322.9277,43.4785 M330.7027,43.4785 C330.7027,46.4325 330.2307,49.1925 329.2797,51.7545 C328.3307,54.3195 326.9817,56.5625 325.2267,58.4865 C323.4727,60.4085 321.3377,61.9265 318.8307,63.0405 C316.3217,64.1565 313.4787,64.7125 310.3027,64.7125 C307.1797,64.7125 304.3657,64.1565 301.8597,63.0405 C299.3537,61.9265 297.2047,60.4085 295.4207,58.4865 C293.6377,56.5625 292.2867,54.3195 291.3667,51.7545 C290.4477,49.1925 289.9887,46.4325 289.9887,43.4785 C289.9887,40.5805 290.4477,37.8495 291.3667,35.2855 C292.2867,32.7205 293.6377,30.4775 295.4207,28.5555 C297.2047,26.6335 299.3537,25.1145 301.8597,23.9995 C304.3657,22.8835 307.1797,22.3275 310.3027,22.3275 C313.4787,22.3275 316.3217,22.8835 318.8307,23.9995 C321.3377,25.1145 323.4727,26.6335 325.2267,28.5555 C326.9817,30.4775 328.3307,32.7205 329.2797,35.2855 C330.2307,37.8495 330.7027,40.5805 330.7027,43.4785" id="Fill-14" fill="#0064D2"></path>
            <g id="Group-18" transform="translate(334.000000, 22.040000)">
                <mask id="mask-4" fill="white">
                    <use xlink:href="#path-3"></use>
                </mask>
                <g id="Clip-17"></g>
                <path d="M56.1602,41.085 C55.4332,41.809 54.5442,42.172 53.4822,42.172 C52.4802,42.172 51.6162,41.809 50.8932,41.085 C50.1682,40.361 49.8062,39.496 49.8062,38.492 L49.8062,14.749 C49.8062,12.355 49.2482,10.444 48.1352,9.024 C47.0172,7.602 45.2372,6.892 42.7832,6.892 C40.7202,6.892 38.7712,7.491 36.9322,8.689 C35.0932,9.888 33.6702,11.237 32.6682,12.744 L32.6682,38.492 C32.6682,39.496 32.3052,40.361 31.5802,41.085 C30.8542,41.809 29.9652,42.172 28.9072,42.172 C27.9012,42.172 27.0342,41.809 26.3102,41.085 C25.5862,40.361 25.2262,39.496 25.2262,38.492 L25.2262,14.749 C25.2262,12.355 24.6822,10.444 23.5972,9.024 C22.5082,7.602 20.6802,6.892 18.1192,6.892 C16.1672,6.892 14.2752,7.506 12.4352,8.731 C10.5962,9.956 9.1772,11.321 8.1722,12.828 L8.1722,38.492 C8.1722,39.496 7.8062,40.361 7.0842,41.085 C6.3582,41.809 5.4682,42.172 4.4062,42.172 C3.4082,42.172 2.5412,41.809 1.8182,41.085 C1.0962,40.361 0.7302,39.496 0.7302,38.492 L0.7302,4.384 C0.7302,3.437 1.0962,2.6 1.8182,1.876 C2.5412,1.151 3.4612,0.788 4.5762,0.788 C5.5232,0.788 6.3582,1.151 7.0842,1.876 C7.8062,2.6 8.1722,3.437 8.1722,4.384 L8.1722,6.974 C8.5582,6.306 9.1862,5.596 10.0512,4.844 C10.9142,4.091 11.9322,3.366 13.1022,2.669 C14.2752,1.974 15.5402,1.402 16.9062,0.956 C18.2732,0.511 19.7092,0.287 21.2132,0.287 C24.3342,0.287 26.7852,0.985 28.5722,2.376 C30.3552,3.771 31.5522,5.554 32.1662,7.728 C32.7212,6.836 33.4762,5.944 34.4232,5.052 C35.3682,4.16 36.4422,3.366 37.6412,2.669 C38.8382,1.974 40.1352,1.402 41.5272,0.956 C42.9212,0.511 44.3442,0.287 45.7922,0.287 C49.5242,0.287 52.3692,1.289 54.3202,3.296 C56.2712,5.304 57.2462,8.368 57.2462,12.493 L57.2462,38.492 C57.2462,39.496 56.8832,40.361 56.1602,41.085" id="Fill-16" fill="#0064D2" mask="url(#mask-4)"></path>
            </g>
            <g id="Group-21" transform="translate(160.000000, 0.040000)">
                <mask id="mask-6" fill="white">
                    <use xlink:href="#path-5"></use>
                </mask>
                <g id="Clip-20"></g>
                <path d="M85.1133,43.4814 C85.1133,66.9634 66.0763,86.0004 42.5923,86.0004 C19.1093,86.0004 0.0713,66.9634 0.0713,43.4814 C0.0713,19.9954 19.1093,0.9604 42.5923,0.9604 C66.0763,0.9604 85.1133,19.9954 85.1133,43.4814" id="Fill-19" fill="#FEDD00" mask="url(#mask-6)"></path>
            </g>
        </g>
    </g>
</svg>