<svg xmlns="http://www.w3.org/2000/svg" width="100" height="100" viewBox="0 0 100 100">
    <g fill="none" fill-rule="evenodd">
        <circle cx="50" cy="50" r="50" fill="#F3F6F8"/>
        <g transform="translate(18.919 20.946)">
            <ellipse cx="28.653" cy="30.776" fill="#FEDD00" rx="28.653" ry="28.684"/>
            <g transform="translate(4.213)">
                <ellipse cx="28.299" cy="28.33" fill="#0064D2" rx="28.299" ry="28.33"/>
                <g fill-rule="nonzero">
                    <path fill="#FEDD00" d="M29.917 23.865l4.714 6.094c.631.816 1.773.94 2.55.277.778-.663.896-1.863.264-2.679l-4.714-6.094c-.631-.817-1.773-.94-2.55-.277-.778.663-.896 1.862-.264 2.679z"/>
                    <path fill="#FEDD00" d="M34.505 27.741l-4.352 7.237c-.534.89-.281 2.066.565 2.627.847.562 1.967.296 2.501-.593l4.352-7.237c.535-.89.282-2.066-.565-2.627-.846-.562-1.966-.296-2.5.593z"/>
                    <path fill="#FFF" d="M12.648 24.949h9.429c1.001 0 1.813-.853 1.813-1.904 0-1.052-.812-1.905-1.813-1.905h-9.429c-1.001 0-1.813.853-1.813 1.905 0 1.051.812 1.904 1.813 1.904z"/>
                    <path fill="#FFF" d="M15.005 23.235v12.76c0 1.052.812 1.905 1.813 1.905 1.002 0 1.814-.853 1.814-1.905v-12.76c0-1.052-.812-1.905-1.814-1.905-1 0-1.813.853-1.813 1.905zM25.16 22.664v13.331c0 1.052.81 1.905 1.812 1.905s1.813-.853 1.813-1.905V22.664c0-1.052-.811-1.905-1.813-1.905-1.001 0-1.813.853-1.813 1.905zM38.928 32.17l3.989 5.713c.592.848 1.726 1.032 2.534.41.807-.622.982-1.814.39-2.662l-3.99-5.714c-.591-.848-1.726-1.031-2.534-.41-.807.623-.982 1.815-.39 2.663zM41.726 27.76l3.99-4.571a1.973 1.973 0 0 0-.112-2.691 1.753 1.753 0 0 0-2.562.117l-3.989 4.57a1.973 1.973 0 0 0 .111 2.692c.739.71 1.886.658 2.562-.117z"/>
                </g>
            </g>
        </g>
    </g>
</svg>
