<svg xmlns="http://www.w3.org/2000/svg" width="24" height="24"><path d="M16.984 2H7C4.254 2 2 4.254 2 7.016V17c0 2.746 2.254 5 5 5h9.984A5.03 5.03 0 0 0 22 16.984V7.016A5.03 5.03 0 0 0 16.984 2zm-.028 7.745l.007.318c0 3.25-2.473 6.997-6.996 6.997a6.96 6.96 0 0 1-3.769-1.105 5.06 5.06 0 0 0 .587.035c1.152 0 2.212-.393 3.054-1.052-1.076-.02-1.984-.73-2.297-1.708.15.028.303.042.463.042a2.46 2.46 0 0 0 .648-.084c-1.125-.228-1.973-1.22-1.973-2.41v-.03a2.45 2.45 0 0 0 1.114.309A2.46 2.46 0 0 1 6.7 9.007c0-.45.12-.873.332-1.236a6.98 6.98 0 0 0 5.069 2.569 2.44 2.44 0 0 1-.064-.561 2.46 2.46 0 0 1 4.255-1.682 4.99 4.99 0 0 0 1.562-.597c-.184.574-.573 1.056-1.08 1.36.496-.06.97-.192 1.412-.387-.33.492-.748.925-1.228 1.27z" fill="#8A93A7" fill-rule="nonzero"/></svg>