<svg xmlns="http://www.w3.org/2000/svg" width="24" height="24"><g fill="#8A93A7" fill-rule="evenodd"><path d="M10.714 10.032v3.65l3.365-1.8z"/><path d="M16.984 2H7C4.254 2 2 4.254 2 7.016V17c0 2.746 2.254 5 5 5h9.984A5.03 5.03 0 0 0 22 16.984V7.016A5.03 5.03 0 0 0 16.984 2zM18.2 12.492l-.095 2.11s-.11.89-.476 1.286c-.476.524-1 .524-1.238.556l-4.365.143-4.254-.143c-.27-.047-.905-.032-1.38-.556-.38-.396-.476-1.286-.476-1.286l-.095-2.11v-.984l.095-2.11s.11-.89.476-1.286c.476-.524 1-.54 1.238-.572L12 7.397l4.365.143c.238.032.778.048 1.254.556.38.397.476 1.302.476 1.302l.095 2.11v.984z" fill-rule="nonzero"/></g></svg>