<?xml version="1.0" encoding="UTF-8"?>
<svg width="400px" height="105px" viewBox="0 0 400 105" version="1.1" xmlns="http://www.w3.org/2000/svg" xmlns:xlink="http://www.w3.org/1999/xlink">
    <!-- Generator: Sketch 52.1 (67048) - http://www.bohemiancoding.com/sketch -->
    <title>tiket white</title>
    <desc>Created with Sketch.</desc>
    <defs>
        <polygon id="path-1" points="0 0.344 27.0928 0.344 27.0928 53.264 0 53.264"></polygon>
        <polygon id="path-3" points="0.7292 0.2869 57.245 0.2869 57.245 42.1719 0.7292 42.1719"></polygon>
        <polygon id="path-5" points="0.0713 0.9604 85.1123 0.9604 85.1123 86 0.0713 86"></polygon>
    </defs>
    <g id="tiket-white" stroke="none" stroke-width="1" fill="none" fill-rule="evenodd">
        <g id="Group-22" transform="translate(4.000000, 9.000000)">
            <g id="Group-3" transform="translate(0.000000, 11.040100)">
                <mask id="mask-2" fill="white">
                    <use xlink:href="#path-1"></use>
                </mask>
                <g id="Clip-2"></g>
                <path d="M27.0928,48.415 C27.0928,49.084 26.9648,49.711 26.7148,50.296 C26.4648,50.882 26.0308,51.398 25.4178,51.843 C24.8068,52.288 23.9398,52.638 22.8248,52.888 C21.7118,53.139 20.2928,53.264 18.5648,53.264 C14.8528,53.264 12.0308,52.331 10.0958,50.463 C8.1608,48.598 7.1918,45.852 7.1918,42.228 L7.1918,21.16 L4.5998,21.16 C3.3188,21.16 2.2308,20.7 1.3408,19.78 C0.4468,18.862 -0.0002,17.732 -0.0002,16.395 C-0.0002,15.17 0.4468,14.11 1.3408,13.218 C2.2308,12.327 3.3188,11.88 4.5998,11.88 L7.1918,11.88 L7.1918,5.609 C7.1918,4.161 7.7038,2.922 8.7298,1.89 C9.7498,0.859 11.0348,0.344 12.5858,0.344 C14.0218,0.344 15.2538,0.859 16.2758,1.89 C17.2998,2.922 17.8128,4.161 17.8128,5.609 L17.8128,11.88 L21.9908,11.88 C23.2168,11.88 24.2748,12.34 25.1678,13.26 C26.0578,14.18 26.5048,15.28 26.5048,16.561 C26.5048,17.845 26.0578,18.932 25.1678,19.823 C24.2748,20.716 23.2168,21.16 21.9908,21.16 L17.8128,21.16 L17.8128,39.386 C17.8128,41.002 18.2128,42.145 19.0218,42.812 C19.8288,43.482 20.6548,43.817 21.4888,43.817 L21.9468,43.817 L22.4078,43.817 C23.9118,43.817 25.0698,44.265 25.8768,45.154 C26.6858,46.047 27.0928,47.134 27.0928,48.415" id="Fill-1" fill="#FFFFFF" mask="url(#mask-2)"></path>
            </g>
            <path d="M42.3057,58.5352 C42.3057,59.9852 41.7897,61.2242 40.7587,62.2562 C39.7277,63.2872 38.4587,63.8032 36.9547,63.8032 C35.5057,63.8032 34.2677,63.2872 33.2367,62.2562 C32.2037,61.2242 31.6887,59.9852 31.6887,58.5352 L31.6887,27.6012 C31.6887,26.1532 32.2037,24.9282 33.2367,23.9242 C34.2677,22.9202 35.5617,22.4182 37.1217,22.4182 C38.5717,22.4182 39.7997,22.9202 40.8017,23.9242 C41.8067,24.9282 42.3057,26.1532 42.3057,27.6012 L42.3057,58.5352 Z" id="Fill-4" fill="#FFFFFF"></path>
            <path d="M84.1084,58.4512 C84.1084,59.7362 83.6194,60.9482 82.6434,62.0882 C81.6684,63.2312 80.4004,63.8032 78.8394,63.8032 C78.0044,63.8032 77.1804,63.6222 76.3764,63.2592 C75.5644,62.8972 74.9104,62.3282 74.4084,61.5462 L64.9624,47.7522 L60.1144,52.9342 L60.1144,58.5352 C60.1144,59.9852 59.5984,61.2242 58.5664,62.2562 C57.5314,63.2872 56.2674,63.8032 54.7624,63.8032 C53.3114,63.8032 52.0724,63.2872 51.0414,62.2562 C50.0094,61.2242 49.4964,59.9852 49.4964,58.5352 L49.4964,12.2192 C49.4964,10.7712 50.0094,9.5442 51.0414,8.5412 C52.0724,7.5372 53.3704,7.0352 54.9274,7.0352 C56.3764,7.0352 57.6044,7.5372 58.6104,8.5412 C59.6124,9.5442 60.1144,10.7712 60.1144,12.2192 L60.1144,40.8952 L74.4084,24.0082 C75.3574,22.8922 76.5524,22.3362 78.0044,22.3362 C79.3414,22.3362 80.5114,22.8372 81.5134,23.8402 C82.5184,24.8442 83.0214,26.0132 83.0214,27.3502 C83.0214,28.5212 82.6304,29.5822 81.8484,30.5282 L72.4864,41.2292 L83.1034,55.4422 C83.7734,56.3912 84.1084,57.3932 84.1084,58.4512" id="Fill-6" fill="#FFFFFF"></path>
            <path d="M115.793,39.3067 C115.737,38.3597 115.511,37.3567 115.123,36.2967 C114.732,35.2397 114.147,34.2777 113.366,33.4117 C112.587,32.5487 111.572,31.8247 110.316,31.2407 C109.063,30.6547 107.571,30.3617 105.843,30.3617 C104.171,30.3617 102.735,30.6407 101.536,31.1977 C100.337,31.7557 99.352,32.4657 98.569,33.3297 C97.788,34.1947 97.177,35.1557 96.731,36.2127 C96.283,37.2737 96.008,38.3027 95.896,39.3067 L115.793,39.3067 Z M125.907,41.6477 C125.907,42.9297 125.431,44.0597 124.484,45.0337 C123.539,46.0087 122.367,46.4967 120.974,46.4967 L96.063,46.4967 C96.228,47.7807 96.606,48.9927 97.19,50.1337 C97.774,51.2777 98.557,52.2657 99.531,53.1007 C100.508,53.9377 101.678,54.6067 103.041,55.1077 C104.407,55.6107 105.955,55.8597 107.684,55.8597 C108.796,55.8597 110.066,55.6927 111.486,55.3587 C112.906,55.0257 114.26,54.5227 115.541,53.8527 C116.211,53.5207 116.907,53.3537 117.633,53.3537 C118.747,53.3537 119.775,53.7427 120.725,54.5227 C121.671,55.3047 122.147,56.3337 122.147,57.6177 C122.147,59.0097 121.531,60.0697 120.309,60.7937 C118.3,62.0197 116.112,62.9127 113.743,63.4677 C111.375,64.0247 108.964,64.3037 106.513,64.3037 C103.445,64.3037 100.59,63.8027 97.945,62.7997 C95.295,61.7957 93.012,60.3747 91.086,58.5357 C89.164,56.6977 87.66,54.4667 86.572,51.8487 C85.485,49.2287 84.943,46.3037 84.943,43.0697 C84.943,40.1717 85.456,37.4257 86.49,34.8337 C87.519,32.2427 88.954,29.9997 90.797,28.1037 C92.633,26.2097 94.835,24.7047 97.4,23.5897 C99.963,22.4747 102.781,21.9177 105.843,21.9177 C108.129,21.9177 110.258,22.2397 112.239,22.8787 C114.217,23.5197 116.014,24.4257 117.633,25.5957 C119.248,26.7657 120.655,28.2017 121.855,29.9027 C123.048,31.6027 124.015,33.4837 124.737,35.5447 C125.014,36.4927 125.28,37.4957 125.529,38.5547 C125.782,39.6147 125.907,40.6447 125.907,41.6477 Z" id="Fill-8" fill="#FFFFFF"></path>
            <path d="M152.4043,59.4551 C152.4043,60.1241 152.2783,60.7511 152.0283,61.3361 C151.7803,61.9221 151.3463,62.4381 150.7353,62.8831 C150.1213,63.3281 149.2573,63.6781 148.1433,63.9281 C147.0263,64.1791 145.6043,64.3041 143.8793,64.3041 C140.1683,64.3041 137.3463,63.3711 135.4123,61.5031 C133.4783,59.6381 132.5123,56.8921 132.5123,53.2681 L132.5123,32.2001 L129.9213,32.2001 C128.6393,32.2001 127.5503,31.7401 126.6593,30.8201 C125.7663,29.9021 125.3223,28.7721 125.3223,27.4351 C125.3223,26.2101 125.7663,25.1501 126.6593,24.2581 C127.5503,23.3671 128.6393,22.9201 129.9213,22.9201 L132.5123,22.9201 L132.5123,16.6491 C132.5123,15.2011 133.0213,13.9621 134.0473,12.9301 C135.0673,11.8991 136.3513,11.3841 137.9023,11.3841 C139.3383,11.3841 140.5693,11.8991 141.5913,12.9301 C142.6113,13.9621 143.1283,15.2011 143.1283,16.6491 L143.1283,22.9201 L147.3053,22.9201 C148.5313,22.9201 149.5893,23.3801 150.4823,24.3001 C151.3763,25.2201 151.8193,26.3201 151.8193,27.6011 C151.8193,28.8851 151.3763,29.9721 150.4823,30.8631 C149.5893,31.7561 148.5313,32.2001 147.3053,32.2001 L143.1283,32.2001 L143.1283,50.4261 C143.1283,52.0421 143.5293,53.1851 144.3403,53.8521 C145.1453,54.5221 145.9683,54.8571 146.8033,54.8571 L147.2623,54.8571 L147.7223,54.8571 C149.2303,54.8571 150.3833,55.3051 151.1923,56.1941 C152.0003,57.0871 152.4043,58.1741 152.4043,59.4551" id="Fill-10" fill="#FFFFFF"></path>
            <path d="M288.1572,57.6074 C288.1572,57.9424 288.0882,58.3054 287.9502,58.6944 C287.8082,59.0844 287.5432,59.4474 287.1552,59.7804 C285.6502,61.2864 283.8372,62.4854 281.7182,63.3764 C279.6022,64.2674 277.0372,64.7124 274.0282,64.7124 C270.9622,64.7124 268.1772,64.1834 265.6672,63.1254 C263.1612,62.0664 261.0122,60.5894 259.2282,58.6944 C257.4482,56.8004 256.0552,54.5554 255.0502,51.9644 C254.0482,49.3734 253.5442,46.5444 253.5442,43.4784 C253.5442,40.4684 254.0482,37.6684 255.0502,35.0764 C256.0552,32.4844 257.4482,30.2404 259.2282,28.3454 C261.0122,26.4514 263.1612,24.9744 265.6672,23.9164 C268.1772,22.8554 270.9622,22.3274 274.0282,22.3274 C275.5322,22.3274 276.9552,22.4524 278.2922,22.7034 C279.6322,22.9534 280.8542,23.3164 281.9712,23.7894 C283.0852,24.2634 284.1032,24.8364 285.0232,25.5034 C285.9422,26.1714 286.7642,26.8964 287.4902,27.6764 C287.8782,28.2354 288.0752,28.8204 288.0752,29.4324 C288.0752,30.3804 287.7232,31.1754 287.0262,31.8164 C286.3302,32.4574 285.5392,32.7774 284.6452,32.7774 C283.7552,32.7774 282.9732,32.4714 282.3062,31.8574 C281.1892,30.8534 279.9772,30.1164 278.6662,29.6414 C277.3582,29.1684 275.9492,28.9314 274.4452,28.9314 C272.3822,28.9314 270.5572,29.2954 268.9712,30.0194 C267.3822,30.7444 266.0032,31.7594 264.8332,33.0694 C263.6632,34.3794 262.7692,35.9124 262.1592,37.6684 C261.5412,39.4234 261.2352,41.3614 261.2352,43.4784 C261.2352,45.5964 261.5412,47.5474 262.1592,49.3304 C262.7692,51.1164 263.6632,52.6614 264.8332,53.9704 C266.0032,55.2804 267.3822,56.2974 268.9712,57.0224 C270.5572,57.7474 272.3822,58.1084 274.4452,58.1084 C277.5102,58.1084 280.1322,57.1064 282.3062,55.0984 C282.9732,54.5984 283.7552,54.3464 284.6452,54.3464 C285.5392,54.3464 286.3462,54.6544 287.0692,55.2664 C287.7962,55.8804 288.1572,56.6614 288.1572,57.6074" id="Fill-12" fill="#FFFFFF"></path>
            <path d="M322.9268,43.4785 C322.9268,41.5285 322.6478,39.6895 322.0888,37.9605 C321.5328,36.2345 320.7118,34.7005 319.6238,33.3615 C318.5368,32.0255 317.2258,30.9525 315.6928,30.1445 C314.1618,29.3355 312.3618,28.9315 310.3018,28.9315 C308.2948,28.9315 306.5108,29.3355 304.9498,30.1445 C303.3898,30.9525 302.0668,32.0255 300.9828,33.3615 C299.8938,34.7005 299.0728,36.2345 298.5148,37.9605 C297.9558,39.6895 297.6768,41.5285 297.6768,43.4785 C297.6768,45.4295 297.9558,47.2825 298.5148,49.0385 C299.0728,50.7935 299.8938,52.3405 300.9828,53.6785 C302.0668,55.0155 303.3898,56.0895 304.9498,56.8975 C306.5108,57.7065 308.2948,58.1085 310.3018,58.1085 C312.3618,58.1085 314.1618,57.7065 315.6928,56.8975 C317.2258,56.0895 318.5368,55.0155 319.6238,53.6785 C320.7118,52.3405 321.5328,50.7935 322.0888,49.0385 C322.6478,47.2825 322.9268,45.4295 322.9268,43.4785 M330.7018,43.4785 C330.7018,46.4325 330.2298,49.1925 329.2788,51.7545 C328.3298,54.3195 326.9808,56.5625 325.2258,58.4865 C323.4718,60.4085 321.3368,61.9265 318.8298,63.0405 C316.3208,64.1565 313.4778,64.7125 310.3018,64.7125 C307.1788,64.7125 304.3648,64.1565 301.8588,63.0405 C299.3528,61.9265 297.2038,60.4085 295.4198,58.4865 C293.6368,56.5625 292.2858,54.3195 291.3658,51.7545 C290.4468,49.1925 289.9878,46.4325 289.9878,43.4785 C289.9878,40.5805 290.4468,37.8495 291.3658,35.2855 C292.2858,32.7205 293.6368,30.4775 295.4198,28.5555 C297.2038,26.6325 299.3528,25.1145 301.8588,23.9995 C304.3648,22.8835 307.1788,22.3275 310.3018,22.3275 C313.4778,22.3275 316.3208,22.8835 318.8298,23.9995 C321.3368,25.1145 323.4718,26.6325 325.2258,28.5555 C326.9808,30.4775 328.3298,32.7205 329.2788,35.2855 C330.2298,37.8495 330.7018,40.5805 330.7018,43.4785" id="Fill-14" fill="#FFFFFF"></path>
            <g id="Group-18" transform="translate(334.000000, 22.040100)">
                <mask id="mask-4" fill="white">
                    <use xlink:href="#path-3"></use>
                </mask>
                <g id="Clip-17"></g>
                <path d="M56.1592,41.0849 C55.4322,41.8089 54.5432,42.1719 53.4812,42.1719 C52.4792,42.1719 51.6152,41.8089 50.8922,41.0849 C50.1672,40.3609 49.8052,39.4959 49.8052,38.4919 L49.8052,14.7489 C49.8052,12.3549 49.2472,10.4439 48.1342,9.0239 C47.0162,7.6019 45.2362,6.8919 42.7822,6.8919 C40.7192,6.8919 38.7702,7.4909 36.9312,8.6889 C35.0922,9.8879 33.6692,11.2369 32.6672,12.7439 L32.6672,38.4919 C32.6672,39.4959 32.3042,40.3609 31.5792,41.0849 C30.8532,41.8089 29.9642,42.1719 28.9062,42.1719 C27.9002,42.1719 27.0332,41.8089 26.3092,41.0849 C25.5852,40.3609 25.2252,39.4959 25.2252,38.4919 L25.2252,14.7489 C25.2252,12.3549 24.6812,10.4439 23.5962,9.0239 C22.5072,7.6019 20.6792,6.8919 18.1182,6.8919 C16.1662,6.8919 14.2742,7.5059 12.4342,8.7309 C10.5952,9.9559 9.1762,11.3209 8.1712,12.8279 L8.1712,38.4919 C8.1712,39.4959 7.8052,40.3609 7.0832,41.0849 C6.3572,41.8089 5.4672,42.1719 4.4052,42.1719 C3.4072,42.1719 2.5402,41.8089 1.8172,41.0849 C1.0952,40.3609 0.7292,39.4959 0.7292,38.4919 L0.7292,4.3839 C0.7292,3.4369 1.0952,2.5999 1.8172,1.8759 C2.5402,1.1509 3.4602,0.7879 4.5752,0.7879 C5.5222,0.7879 6.3572,1.1509 7.0832,1.8759 C7.8052,2.5999 8.1712,3.4369 8.1712,4.3839 L8.1712,6.9739 C8.5572,6.3059 9.1852,5.5959 10.0502,4.8439 C10.9132,4.0909 11.9312,3.3659 13.1012,2.6689 C14.2742,1.9739 15.5392,1.4019 16.9052,0.9559 C18.2722,0.5109 19.7082,0.2869 21.2122,0.2869 C24.3332,0.2869 26.7842,0.9849 28.5712,2.3759 C30.3542,3.7709 31.5512,5.5539 32.1652,7.7279 C32.7202,6.8359 33.4752,5.9439 34.4222,5.0519 C35.3672,4.1599 36.4412,3.3659 37.6402,2.6689 C38.8372,1.9739 40.1342,1.4019 41.5262,0.9559 C42.9202,0.5109 44.3432,0.2869 45.7912,0.2869 C49.5232,0.2869 52.3682,1.2889 54.3192,3.2959 C56.2702,5.3039 57.2452,8.3679 57.2452,12.4929 L57.2452,38.4919 C57.2452,39.4959 56.8822,40.3609 56.1592,41.0849" id="Fill-16" fill="#FFFFFF" mask="url(#mask-4)"></path>
            </g>
            <g id="Group-21" transform="translate(160.000000, 0.040100)">
                <mask id="mask-6" fill="white">
                    <use xlink:href="#path-5"></use>
                </mask>
                <g id="Clip-20"></g>
                <path d="M85.1123,43.4814 C85.1123,66.9634 66.0753,86.0004 42.5913,86.0004 C19.1083,86.0004 0.0713,66.9634 0.0713,43.4814 C0.0713,19.9954 19.1083,0.9604 42.5913,0.9604 C66.0753,0.9604 85.1123,19.9954 85.1123,43.4814" id="Fill-19" fill="#FEDD00" mask="url(#mask-6)"></path>
            </g>
        </g>
    </g>
</svg>